<svg xmlns="http://www.w3.org/2000/svg" xmlns:xlink="http://www.w3.org/1999/xlink" width="500" zoomAndPan="magnify" viewBox="0 0 375 374.999991" height="500" preserveAspectRatio="xMidYMid meet" version="1.0"><defs><g/><clipPath id="432973a97e"><path d="M 54.816406 109.859375 L 158.175781 109.859375 L 158.175781 201.945312 L 54.816406 201.945312 Z M 54.816406 109.859375 " clip-rule="nonzero"/></clipPath><clipPath id="b68b317cb5"><path d="M 60.453125 109.859375 L 153 109.859375 L 153 202 L 60.453125 202 Z M 60.453125 109.859375 " clip-rule="nonzero"/></clipPath><clipPath id="d61512bd41"><path d="M 30.5 4.804688 L 344.492188 4.804688 L 344.492188 370.117188 L 30.5 370.117188 Z M 30.5 4.804688 " clip-rule="nonzero"/></clipPath><clipPath id="39898a765d"><path d="M 187.496094 4.804688 L 344.492188 96.148438 L 344.492188 278.835938 L 187.496094 370.179688 L 30.5 278.835938 L 30.5 96.148438 Z M 187.496094 4.804688 " clip-rule="nonzero"/></clipPath><clipPath id="f98ab33170"><path d="M 53.121094 31.132812 L 321.878906 31.132812 L 321.878906 343.980469 L 53.121094 343.980469 Z M 53.121094 31.132812 " clip-rule="nonzero"/></clipPath><clipPath id="4c4e93d374"><path d="M 187.5 31.132812 L 321.878906 109.316406 L 321.878906 265.683594 L 187.5 343.867188 L 53.121094 265.683594 L 53.121094 109.316406 Z M 187.5 31.132812 " clip-rule="nonzero"/></clipPath><clipPath id="7a4f5add14"><path d="M 53.121094 31.132812 L 321.871094 31.132812 L 321.871094 343.445312 L 53.121094 343.445312 Z M 53.121094 31.132812 " clip-rule="nonzero"/></clipPath><clipPath id="8c07c058ed"><path d="M 187.496094 31.132812 L 321.871094 109.316406 L 321.871094 265.679688 L 187.496094 343.859375 L 53.121094 265.679688 L 53.121094 109.316406 Z M 187.496094 31.132812 " clip-rule="nonzero"/></clipPath><clipPath id="2807fbe3b0"><path d="M 121 128.472656 L 293.261719 128.472656 L 293.261719 238.257812 L 121 238.257812 Z M 121 128.472656 " clip-rule="nonzero"/></clipPath><clipPath id="e218950e15"><path d="M 86.945312 154 L 161 154 L 161 161 L 86.945312 161 Z M 86.945312 154 " clip-rule="nonzero"/></clipPath><clipPath id="8e725e4a7f"><path d="M 73.699219 103.492188 L 139.21875 103.492188 L 139.21875 169.0625 L 73.699219 169.0625 Z M 73.699219 103.492188 " clip-rule="nonzero"/></clipPath></defs><rect x="-37.5" width="450" fill="#ffffff" y="-37.499999" height="449.999989" fill-opacity="1"/><rect x="-37.5" width="450" fill="#ffffff" y="-37.499999" height="449.999989" fill-opacity="1"/><g clip-path="url(#432973a97e)"><path fill="#1b3668" d="M 54.816406 109.859375 L 158.054688 109.859375 L 158.054688 201.945312 L 54.816406 201.945312 Z M 54.816406 109.859375 " fill-opacity="1" fill-rule="nonzero"/></g><g clip-path="url(#b68b317cb5)"><path fill="#ff914d" d="M 112.753906 201.921875 L 100.222656 201.921875 C 99.925781 201.921875 99.636719 201.894531 99.347656 201.835938 C 99.058594 201.777344 98.78125 201.695312 98.507812 201.582031 C 98.238281 201.46875 97.980469 201.332031 97.734375 201.167969 C 97.488281 201.003906 97.265625 200.816406 97.054688 200.609375 C 96.847656 200.402344 96.664062 200.175781 96.5 199.933594 C 96.335938 199.6875 96.199219 199.429688 96.085938 199.15625 C 95.972656 198.886719 95.886719 198.605469 95.832031 198.316406 C 95.773438 198.03125 95.746094 197.738281 95.746094 197.445312 L 95.746094 188.703125 C 94.074219 188.152344 92.453125 187.480469 90.886719 186.683594 L 84.703125 192.882812 C 84.492188 193.089844 84.265625 193.273438 84.023438 193.4375 C 83.777344 193.601562 83.519531 193.738281 83.25 193.851562 C 82.976562 193.964844 82.699219 194.046875 82.410156 194.105469 C 82.121094 194.164062 81.828125 194.191406 81.535156 194.191406 C 81.242188 194.191406 80.949219 194.164062 80.664062 194.105469 C 80.375 194.046875 80.09375 193.964844 79.824219 193.851562 C 79.550781 193.738281 79.292969 193.601562 79.046875 193.4375 C 78.804688 193.273438 78.578125 193.089844 78.371094 192.882812 L 69.5 184.011719 C 69.292969 183.804688 69.105469 183.578125 68.941406 183.332031 C 68.78125 183.089844 68.640625 182.828125 68.53125 182.558594 C 68.417969 182.285156 68.332031 182.007812 68.273438 181.71875 C 68.21875 181.429688 68.1875 181.140625 68.1875 180.84375 C 68.1875 180.550781 68.21875 180.261719 68.273438 179.972656 C 68.332031 179.683594 68.417969 179.402344 68.53125 179.132812 C 68.640625 178.859375 68.78125 178.601562 68.941406 178.359375 C 69.105469 178.113281 69.292969 177.886719 69.5 177.679688 L 75.695312 171.492188 C 74.902344 169.921875 74.234375 168.304688 73.691406 166.632812 L 64.933594 166.632812 C 64.640625 166.632812 64.347656 166.605469 64.0625 166.546875 C 63.773438 166.488281 63.492188 166.40625 63.222656 166.292969 C 62.949219 166.179688 62.691406 166.042969 62.449219 165.878906 C 62.203125 165.714844 61.976562 165.527344 61.769531 165.320312 C 61.5625 165.113281 61.375 164.886719 61.214844 164.644531 C 61.050781 164.398438 60.910156 164.140625 60.800781 163.871094 C 60.6875 163.597656 60.601562 163.320312 60.542969 163.03125 C 60.488281 162.742188 60.457031 162.453125 60.457031 162.15625 L 60.457031 149.628906 C 60.457031 149.335938 60.488281 149.042969 60.542969 148.753906 C 60.601562 148.46875 60.6875 148.1875 60.800781 147.917969 C 60.910156 147.644531 61.050781 147.386719 61.214844 147.140625 C 61.375 146.898438 61.5625 146.671875 61.769531 146.464844 C 61.976562 146.257812 62.203125 146.070312 62.449219 145.90625 C 62.691406 145.746094 62.949219 145.605469 63.222656 145.492188 C 63.492188 145.382812 63.773438 145.296875 64.0625 145.238281 C 64.347656 145.179688 64.640625 145.152344 64.933594 145.152344 L 73.679688 145.152344 C 74.222656 143.480469 74.890625 141.863281 75.683594 140.292969 L 69.5 134.109375 C 69.292969 133.902344 69.105469 133.675781 68.941406 133.429688 C 68.78125 133.1875 68.640625 132.929688 68.53125 132.65625 C 68.417969 132.386719 68.332031 132.105469 68.273438 131.816406 C 68.21875 131.527344 68.1875 131.238281 68.1875 130.941406 C 68.1875 130.648438 68.21875 130.359375 68.273438 130.070312 C 68.332031 129.78125 68.417969 129.5 68.53125 129.230469 C 68.640625 128.957031 68.78125 128.699219 68.941406 128.457031 C 69.105469 128.210938 69.292969 127.984375 69.5 127.777344 L 78.371094 118.90625 C 78.578125 118.699219 78.804688 118.511719 79.046875 118.351562 C 79.292969 118.1875 79.550781 118.050781 79.824219 117.9375 C 80.09375 117.824219 80.375 117.738281 80.664062 117.683594 C 80.949219 117.625 81.242188 117.597656 81.535156 117.597656 C 81.828125 117.597656 82.121094 117.625 82.410156 117.683594 C 82.699219 117.738281 82.976562 117.824219 83.25 117.9375 C 83.519531 118.050781 83.777344 118.1875 84.023438 118.351562 C 84.265625 118.511719 84.492188 118.699219 84.703125 118.90625 L 90.890625 125.101562 C 92.457031 124.308594 94.078125 123.640625 95.746094 123.097656 L 95.746094 114.339844 C 95.746094 114.046875 95.777344 113.757812 95.832031 113.46875 C 95.890625 113.179688 95.976562 112.898438 96.089844 112.628906 C 96.203125 112.355469 96.339844 112.097656 96.503906 111.855469 C 96.664062 111.609375 96.851562 111.386719 97.058594 111.175781 C 97.265625 110.96875 97.492188 110.785156 97.738281 110.621094 C 97.980469 110.457031 98.238281 110.320312 98.511719 110.207031 C 98.78125 110.09375 99.0625 110.007812 99.351562 109.953125 C 99.636719 109.894531 99.929688 109.863281 100.222656 109.863281 L 112.753906 109.863281 C 113.046875 109.863281 113.339844 109.894531 113.628906 109.953125 C 113.914062 110.007812 114.195312 110.09375 114.464844 110.207031 C 114.738281 110.320312 114.996094 110.457031 115.238281 110.621094 C 115.484375 110.785156 115.710938 110.96875 115.917969 111.175781 C 116.125 111.386719 116.3125 111.609375 116.476562 111.855469 C 116.636719 112.097656 116.777344 112.355469 116.890625 112.628906 C 117 112.898438 117.085938 113.179688 117.144531 113.46875 C 117.203125 113.757812 117.230469 114.046875 117.230469 114.339844 L 117.230469 123.085938 C 118.902344 123.628906 120.519531 124.300781 122.089844 125.09375 L 128.269531 118.90625 C 128.480469 118.699219 128.707031 118.511719 128.949219 118.351562 C 129.195312 118.1875 129.453125 118.050781 129.722656 117.9375 C 129.996094 117.824219 130.277344 117.738281 130.5625 117.683594 C 130.851562 117.625 131.144531 117.597656 131.4375 117.597656 C 131.730469 117.597656 132.023438 117.625 132.3125 117.683594 C 132.597656 117.738281 132.878906 117.824219 133.152344 117.9375 C 133.421875 118.050781 133.679688 118.1875 133.925781 118.351562 C 134.167969 118.511719 134.394531 118.699219 134.605469 118.90625 L 143.472656 127.777344 C 143.679688 127.984375 143.867188 128.210938 144.03125 128.457031 C 144.191406 128.699219 144.332031 128.957031 144.441406 129.230469 C 144.554688 129.5 144.640625 129.78125 144.695312 130.070312 C 144.753906 130.359375 144.78125 130.648438 144.78125 130.941406 C 144.78125 131.238281 144.753906 131.527344 144.695312 131.816406 C 144.640625 132.105469 144.554688 132.382812 144.441406 132.65625 C 144.332031 132.925781 144.191406 133.1875 144.03125 133.429688 C 143.867188 133.675781 143.679688 133.902344 143.472656 134.109375 L 137.277344 140.296875 C 138.074219 141.863281 138.746094 143.484375 139.292969 145.15625 L 148.039062 145.15625 C 148.332031 145.15625 148.621094 145.183594 148.910156 145.242188 C 149.199219 145.296875 149.480469 145.382812 149.75 145.496094 C 150.023438 145.609375 150.28125 145.746094 150.523438 145.910156 C 150.769531 146.074219 150.996094 146.257812 151.203125 146.464844 C 151.410156 146.671875 151.597656 146.898438 151.757812 147.144531 C 151.921875 147.386719 152.0625 147.644531 152.171875 147.917969 C 152.285156 148.1875 152.371094 148.46875 152.429688 148.757812 C 152.488281 149.046875 152.515625 149.335938 152.515625 149.628906 L 152.515625 162.160156 C 152.515625 162.457031 152.488281 162.746094 152.429688 163.035156 C 152.371094 163.324219 152.285156 163.601562 152.171875 163.875 C 152.0625 164.144531 151.921875 164.402344 151.757812 164.648438 C 151.597656 164.894531 151.410156 165.117188 151.203125 165.328125 C 150.996094 165.535156 150.769531 165.71875 150.523438 165.882812 C 150.28125 166.046875 150.023438 166.183594 149.75 166.296875 C 149.480469 166.410156 149.199219 166.496094 148.910156 166.550781 C 148.621094 166.609375 148.332031 166.636719 148.039062 166.636719 L 139.292969 166.636719 C 138.746094 168.308594 138.074219 169.929688 137.277344 171.496094 L 143.472656 177.679688 C 143.679688 177.886719 143.867188 178.113281 144.03125 178.359375 C 144.191406 178.601562 144.332031 178.859375 144.441406 179.132812 C 144.554688 179.402344 144.640625 179.683594 144.695312 179.972656 C 144.753906 180.261719 144.78125 180.550781 144.78125 180.84375 C 144.78125 181.140625 144.753906 181.429688 144.695312 181.71875 C 144.640625 182.007812 144.554688 182.285156 144.441406 182.558594 C 144.332031 182.828125 144.191406 183.085938 144.03125 183.332031 C 143.867188 183.578125 143.679688 183.804688 143.472656 184.011719 L 134.605469 192.882812 C 134.394531 193.089844 134.167969 193.273438 133.925781 193.4375 C 133.679688 193.601562 133.421875 193.738281 133.152344 193.851562 C 132.878906 193.964844 132.597656 194.046875 132.3125 194.105469 C 132.023438 194.164062 131.730469 194.191406 131.4375 194.191406 C 131.144531 194.191406 130.851562 194.164062 130.5625 194.105469 C 130.277344 194.046875 129.996094 193.964844 129.722656 193.851562 C 129.453125 193.738281 129.195312 193.601562 128.949219 193.4375 C 128.707031 193.273438 128.480469 193.089844 128.269531 192.882812 L 122.082031 186.683594 C 120.515625 187.480469 118.898438 188.152344 117.226562 188.703125 L 117.226562 197.445312 C 117.226562 197.742188 117.195312 198.03125 117.140625 198.320312 C 117.082031 198.609375 116.996094 198.886719 116.882812 199.160156 C 116.773438 199.429688 116.632812 199.6875 116.472656 199.933594 C 116.308594 200.175781 116.121094 200.402344 115.914062 200.609375 C 115.707031 200.816406 115.480469 201.003906 115.238281 201.167969 C 114.992188 201.332031 114.734375 201.46875 114.464844 201.582031 C 114.191406 201.695312 113.914062 201.777344 113.625 201.835938 C 113.335938 201.894531 113.046875 201.921875 112.753906 201.921875 Z M 90.484375 181.710938 C 90.882812 181.707031 91.253906 181.804688 91.597656 182.003906 C 93.796875 183.265625 96.121094 184.230469 98.566406 184.898438 C 99.050781 185.03125 99.449219 185.296875 99.753906 185.699219 C 100.058594 186.097656 100.210938 186.546875 100.210938 187.050781 L 100.210938 197.453125 C 100.207031 197.464844 100.214844 197.472656 100.230469 197.472656 L 112.761719 197.472656 C 112.773438 197.472656 112.78125 197.46875 112.78125 197.453125 L 112.78125 187.042969 C 112.78125 186.542969 112.933594 186.089844 113.238281 185.691406 C 113.542969 185.292969 113.9375 185.027344 114.421875 184.894531 C 116.867188 184.222656 119.191406 183.257812 121.390625 181.996094 C 121.824219 181.75 122.292969 181.660156 122.789062 181.726562 C 123.285156 181.792969 123.710938 182.003906 124.0625 182.355469 L 131.417969 189.707031 C 131.429688 189.71875 131.4375 189.71875 131.449219 189.707031 L 140.308594 180.847656 C 140.316406 180.839844 140.316406 180.828125 140.308594 180.816406 L 132.953125 173.464844 C 132.601562 173.109375 132.390625 172.683594 132.324219 172.1875 C 132.257812 171.691406 132.347656 171.226562 132.597656 170.792969 C 133.855469 168.59375 134.824219 166.269531 135.492188 163.824219 C 135.625 163.339844 135.890625 162.945312 136.289062 162.640625 C 136.6875 162.335938 137.140625 162.183594 137.644531 162.183594 L 148.042969 162.183594 C 148.058594 162.183594 148.066406 162.175781 148.066406 162.160156 L 148.066406 149.628906 C 148.066406 149.613281 148.058594 149.605469 148.042969 149.609375 L 137.636719 149.609375 C 137.132812 149.609375 136.683594 149.457031 136.285156 149.152344 C 135.882812 148.847656 135.617188 148.449219 135.484375 147.964844 C 134.816406 145.519531 133.851562 143.199219 132.589844 141 C 132.34375 140.5625 132.25 140.097656 132.316406 139.601562 C 132.382812 139.105469 132.59375 138.679688 132.949219 138.324219 L 140.300781 130.972656 C 140.3125 130.960938 140.3125 130.953125 140.300781 130.941406 L 131.453125 122.066406 C 131.441406 122.058594 131.433594 122.058594 131.421875 122.066406 L 124.070312 129.421875 C 123.714844 129.773438 123.289062 129.984375 122.792969 130.050781 C 122.296875 130.117188 121.832031 130.027344 121.394531 129.78125 C 119.195312 128.519531 116.871094 127.554688 114.425781 126.882812 C 113.941406 126.75 113.546875 126.484375 113.242188 126.085938 C 112.9375 125.6875 112.785156 125.234375 112.785156 124.734375 L 112.785156 114.339844 C 112.785156 114.328125 112.777344 114.320312 112.765625 114.320312 L 100.222656 114.320312 C 100.207031 114.320312 100.199219 114.328125 100.199219 114.339844 L 100.199219 124.746094 C 100.199219 125.246094 100.046875 125.699219 99.742188 126.097656 C 99.4375 126.496094 99.042969 126.761719 98.558594 126.894531 C 96.113281 127.566406 93.789062 128.53125 91.589844 129.792969 C 91.152344 130.039062 90.6875 130.128906 90.191406 130.0625 C 89.695312 129.996094 89.269531 129.785156 88.914062 129.433594 L 81.5625 122.078125 C 81.550781 122.070312 81.542969 122.070312 81.53125 122.078125 L 72.660156 130.9375 C 72.652344 130.949219 72.652344 130.957031 72.660156 130.96875 L 80.015625 138.320312 C 80.367188 138.675781 80.578125 139.101562 80.644531 139.597656 C 80.710938 140.09375 80.621094 140.558594 80.371094 140.996094 C 79.113281 143.195312 78.144531 145.515625 77.476562 147.960938 C 77.34375 148.445312 77.078125 148.839844 76.679688 149.148438 C 76.277344 149.453125 75.828125 149.605469 75.324219 149.605469 L 64.933594 149.605469 C 64.921875 149.605469 64.914062 149.609375 64.914062 149.625 L 64.914062 162.15625 C 64.914062 162.167969 64.921875 162.175781 64.933594 162.175781 L 75.335938 162.175781 C 75.839844 162.175781 76.289062 162.328125 76.691406 162.632812 C 77.089844 162.9375 77.355469 163.332031 77.488281 163.816406 C 78.15625 166.261719 79.121094 168.585938 80.382812 170.785156 C 80.632812 171.21875 80.722656 171.6875 80.65625 172.183594 C 80.589844 172.679688 80.378906 173.105469 80.023438 173.457031 L 72.671875 180.8125 C 72.664062 180.820312 72.664062 180.832031 72.671875 180.84375 L 81.53125 189.71875 C 81.542969 189.730469 81.550781 189.730469 81.5625 189.71875 L 88.914062 182.367188 C 89.347656 181.933594 89.871094 181.710938 90.484375 181.710938 Z M 106.515625 179.621094 C 104.953125 179.625 103.40625 179.480469 101.875 179.179688 C 100.34375 178.878906 98.855469 178.429688 97.410156 177.835938 C 95.96875 177.242188 94.597656 176.507812 93.300781 175.640625 C 92 174.773438 90.800781 173.789062 89.699219 172.683594 C 83.03125 166.019531 80.988281 156.179688 84.367188 147.007812 C 84.921875 145.492188 85.636719 144.054688 86.507812 142.691406 C 87.378906 141.332031 88.382812 140.078125 89.527344 138.9375 C 90.667969 137.792969 91.921875 136.789062 93.28125 135.917969 C 94.644531 135.046875 96.082031 134.332031 97.597656 133.773438 C 106.769531 130.394531 116.609375 132.4375 123.277344 139.105469 C 129.941406 145.773438 131.984375 155.609375 128.609375 164.78125 C 128.050781 166.296875 127.335938 167.738281 126.464844 169.097656 C 125.59375 170.460938 124.585938 171.710938 123.445312 172.855469 C 122.300781 173.996094 121.050781 175.003906 119.6875 175.875 C 118.328125 176.742188 116.890625 177.457031 115.371094 178.015625 C 112.515625 179.078125 109.5625 179.613281 106.515625 179.621094 Z M 106.550781 136.597656 C 104 136.609375 101.527344 137.0625 99.140625 137.957031 C 97.925781 138.402344 96.773438 138.972656 95.6875 139.667969 C 94.597656 140.363281 93.59375 141.167969 92.679688 142.082031 C 91.765625 142.996094 90.960938 144 90.261719 145.085938 C 89.566406 146.175781 88.996094 147.328125 88.546875 148.542969 C 85.734375 156.175781 87.34375 164.019531 92.847656 169.523438 C 93.734375 170.421875 94.699219 171.226562 95.746094 171.933594 C 96.792969 172.640625 97.898438 173.234375 99.066406 173.722656 C 100.230469 174.207031 101.433594 174.574219 102.671875 174.820312 C 103.910156 175.066406 105.160156 175.1875 106.425781 175.183594 C 108.976562 175.171875 111.445312 174.71875 113.832031 173.824219 C 115.046875 173.378906 116.195312 172.808594 117.285156 172.113281 C 118.375 171.417969 119.378906 170.613281 120.292969 169.699219 C 121.207031 168.785156 122.011719 167.785156 122.707031 166.699219 C 123.40625 165.609375 123.976562 164.460938 124.425781 163.246094 C 127.238281 155.613281 125.628906 147.769531 120.125 142.261719 C 119.238281 141.363281 118.273438 140.558594 117.226562 139.851562 C 116.179688 139.144531 115.074219 138.546875 113.90625 138.0625 C 112.742188 137.574219 111.539062 137.207031 110.300781 136.960938 C 109.0625 136.714844 107.8125 136.59375 106.550781 136.597656 Z M 106.550781 136.597656 " fill-opacity="1" fill-rule="nonzero"/></g><g clip-path="url(#d61512bd41)"><g clip-path="url(#39898a765d)"><path stroke-linecap="butt" transform="matrix(1.892811, 0, 0, 1.892811, 30.501592, 4.806103)" fill="none" stroke-linejoin="miter" d="M 82.942498 -0.000747642 L 165.885837 48.257495 L 165.885837 144.773981 L 82.942498 193.032224 L -0.000841297 144.773981 L -0.000841297 48.257495 Z M 82.942498 -0.000747642 " stroke="#000000" stroke-width="5.547303" stroke-opacity="1" stroke-miterlimit="4"/></g></g><g clip-path="url(#f98ab33170)"><g clip-path="url(#4c4e93d374)"><path fill="#0066a7" d="M 53.121094 31.132812 L 321.878906 31.132812 L 321.878906 343.980469 L 53.121094 343.980469 Z M 53.121094 31.132812 " fill-opacity="1" fill-rule="nonzero"/></g></g><g clip-path="url(#7a4f5add14)"><g clip-path="url(#8c07c058ed)"><path stroke-linecap="butt" transform="matrix(1.892811, 0, 0, 1.892811, 53.12228, 31.133743)" fill="none" stroke-linejoin="miter" d="M 70.991653 -0.000491637 L 141.983933 41.305046 L 141.983933 123.914056 L 70.991653 165.21753 L -0.000626825 123.914056 L -0.000626825 41.305046 Z M 70.991653 -0.000491637 " stroke="#000000" stroke-width="1.584944" stroke-opacity="1" stroke-miterlimit="4"/></g></g><g clip-path="url(#2807fbe3b0)"><path fill="#ffffff" d="M 292.695312 183.769531 L 276.097656 154.359375 L 276.050781 154.277344 C 274.460938 151.675781 271.785156 150.125 268.890625 150.125 L 248.535156 150.125 L 249.960938 139.800781 C 250.355469 136.949219 249.496094 134.066406 247.601562 131.894531 C 245.710938 129.71875 242.972656 128.472656 240.089844 128.472656 L 141.703125 128.472656 C 140.183594 128.472656 138.953125 129.703125 138.953125 131.222656 C 138.953125 132.738281 140.183594 133.96875 141.703125 133.96875 L 240.089844 133.96875 C 241.402344 133.96875 242.597656 134.511719 243.460938 135.5 C 244.320312 136.488281 244.699219 137.75 244.519531 139.046875 L 242.988281 150.125 L 242.902344 150.125 L 233.867188 213.875 L 233.859375 213.945312 C 233.660156 215.675781 233.527344 216.988281 233.4375 217.984375 L 185.089844 217.984375 C 183.761719 209.195312 176.15625 202.4375 167 202.4375 C 157.847656 202.4375 150.242188 209.195312 148.910156 217.984375 L 131.332031 217.984375 C 130.019531 217.984375 128.824219 217.441406 127.964844 216.453125 C 127.101562 215.464844 126.726562 214.203125 126.90625 212.90625 L 128.777344 199.355469 C 128.984375 197.855469 127.933594 196.464844 126.429688 196.257812 C 124.925781 196.050781 123.542969 197.101562 123.335938 198.605469 L 121.464844 212.15625 C 121.070312 215.007812 121.929688 217.890625 123.820312 220.0625 C 125.714844 222.238281 128.453125 223.480469 131.332031 223.480469 L 148.914062 223.480469 C 150.242188 232.273438 157.847656 239.03125 167 239.03125 C 176.15625 239.03125 183.761719 232.273438 185.089844 223.480469 L 242.566406 223.480469 C 243.894531 232.273438 251.5 239.03125 260.652344 239.03125 C 269.808594 239.03125 277.414062 232.273438 278.742188 223.480469 L 282.304688 223.480469 C 286.972656 223.480469 290.78125 219.445312 290.871094 214.445312 L 294.058594 189.136719 L 294.078125 188.792969 C 294.078125 187.003906 293.601562 185.269531 292.695312 183.769531 Z M 179.800781 220.734375 C 179.800781 221.675781 179.695312 222.59375 179.5 223.480469 C 178.238281 229.222656 173.117188 233.535156 167 233.535156 C 160.882812 233.535156 155.761719 229.222656 154.5 223.480469 C 154.304688 222.59375 154.199219 221.675781 154.199219 220.734375 C 154.199219 219.789062 154.304688 218.871094 154.5 217.984375 C 155.761719 212.242188 160.882812 207.933594 167 207.933594 C 173.113281 207.933594 178.238281 212.246094 179.5 217.984375 C 179.695312 218.871094 179.800781 219.789062 179.800781 220.734375 Z M 273.453125 220.734375 C 273.453125 221.675781 273.347656 222.59375 273.15625 223.480469 C 271.894531 229.222656 266.769531 233.535156 260.652344 233.535156 C 254.535156 233.535156 249.414062 229.222656 248.152344 223.480469 C 247.957031 222.59375 247.851562 221.675781 247.851562 220.734375 C 247.851562 219.789062 247.957031 218.871094 248.152344 217.984375 C 249.414062 212.242188 254.535156 207.933594 260.652344 207.933594 C 266.769531 207.933594 271.890625 212.246094 273.15625 217.984375 C 273.347656 218.871094 273.453125 219.789062 273.453125 220.734375 Z M 285.398438 213.917969 L 285.378906 214.261719 C 285.378906 216.316406 284 217.984375 282.304688 217.984375 L 278.742188 217.984375 C 277.414062 209.195312 269.808594 202.4375 260.652344 202.4375 C 251.5 202.4375 243.894531 209.195312 242.5625 217.984375 L 239.160156 217.984375 L 247.777344 155.621094 L 268.890625 155.621094 C 269.84375 155.621094 270.757812 156.175781 271.339844 157.109375 L 287.933594 186.507812 L 287.980469 186.589844 C 288.351562 187.195312 288.558594 187.902344 288.582031 188.644531 L 285.402344 213.917969 Z M 285.398438 213.917969 " fill-opacity="1" fill-rule="nonzero"/></g><path fill="#ffffff" d="M 268.636719 161.433594 C 267.933594 160.050781 266.535156 159.195312 264.984375 159.195312 L 253.886719 159.195312 C 251.832031 159.195312 250.085938 160.730469 249.820312 162.765625 L 247.425781 181.265625 C 247.273438 182.4375 247.632812 183.613281 248.410156 184.5 C 249.1875 185.386719 250.308594 185.894531 251.488281 185.894531 L 274.390625 185.894531 C 275.828125 185.894531 277.132812 185.160156 277.886719 183.9375 C 278.636719 182.710938 278.695312 181.214844 278.046875 179.9375 Z M 253.078125 180.398438 L 255.113281 164.6875 L 264.128906 164.6875 L 272.113281 180.398438 Z M 253.078125 180.398438 " fill-opacity="1" fill-rule="nonzero"/><g clip-path="url(#e218950e15)"><path fill="#ffffff" d="M 160.703125 157.449219 C 160.703125 155.933594 159.472656 154.703125 157.957031 154.703125 L 89.707031 154.703125 C 88.1875 154.703125 86.957031 155.933594 86.957031 157.449219 C 86.957031 158.964844 88.1875 160.195312 89.707031 160.195312 L 157.957031 160.195312 C 159.472656 160.195312 160.703125 158.964844 160.703125 157.449219 Z M 160.703125 157.449219 " fill-opacity="1" fill-rule="nonzero"/></g><path fill="#ffffff" d="M 176.425781 170.496094 L 108.175781 170.496094 C 106.660156 170.496094 105.429688 171.726562 105.429688 173.242188 C 105.429688 174.757812 106.660156 175.988281 108.175781 175.988281 L 176.425781 175.988281 C 177.945312 175.988281 179.175781 174.757812 179.175781 173.242188 C 179.175781 171.726562 177.945312 170.496094 176.425781 170.496094 Z M 176.425781 170.496094 " fill-opacity="1" fill-rule="nonzero"/><path fill="#ffffff" d="M 152.355469 189.035156 C 152.355469 187.515625 151.125 186.285156 149.609375 186.285156 L 98.054688 186.285156 C 96.539062 186.285156 95.308594 187.515625 95.308594 189.035156 C 95.308594 190.550781 96.539062 191.78125 98.054688 191.78125 L 149.609375 191.78125 C 151.125 191.78125 152.355469 190.550781 152.355469 189.035156 Z M 152.355469 189.035156 " fill-opacity="1" fill-rule="nonzero"/><path fill="#ffffff" d="M 108.765625 145.589844 L 177.015625 145.589844 C 178.53125 145.589844 179.761719 144.359375 179.761719 142.84375 C 179.761719 141.324219 178.53125 140.09375 177.015625 140.09375 L 108.765625 140.09375 C 107.246094 140.09375 106.015625 141.324219 106.015625 142.84375 C 106.015625 144.359375 107.246094 145.589844 108.765625 145.589844 Z M 108.765625 145.589844 " fill-opacity="1" fill-rule="nonzero"/><path fill="#f50505" d="M 207.652344 106.789062 L 207.71875 106.890625 L 228.066406 135.820312 C 228.171875 135.957031 228.304688 136.0625 228.460938 136.140625 C 228.621094 136.21875 228.785156 136.257812 228.960938 136.257812 C 229.132812 136.257812 229.300781 136.21875 229.457031 136.140625 C 229.613281 136.0625 229.746094 135.957031 229.851562 135.820312 L 250.132812 106.890625 L 250.199219 106.789062 C 250.453125 106.328125 250.691406 105.863281 250.917969 105.386719 C 251.140625 104.910156 251.347656 104.429688 251.542969 103.941406 C 251.734375 103.449219 251.910156 102.957031 252.070312 102.453125 C 252.230469 101.953125 252.375 101.449219 252.503906 100.9375 C 252.628906 100.429688 252.742188 99.914062 252.835938 99.398438 C 252.929688 98.882812 253.007812 98.363281 253.066406 97.839844 C 253.128906 97.316406 253.171875 96.792969 253.199219 96.269531 C 253.226562 95.746094 253.234375 95.21875 253.226562 94.695312 C 253.21875 94.167969 253.195312 93.644531 253.152344 93.121094 C 253.113281 92.59375 253.054688 92.074219 252.976562 91.554688 C 252.902344 91.03125 252.808594 90.515625 252.703125 90 C 252.59375 89.488281 252.46875 88.976562 252.324219 88.472656 C 252.183594 87.964844 252.023438 87.464844 251.851562 86.96875 C 251.675781 86.472656 251.484375 85.984375 251.277344 85.5 C 251.074219 85.015625 250.851562 84.539062 250.613281 84.070312 C 250.375 83.601562 250.125 83.140625 249.855469 82.6875 C 249.589844 82.234375 249.308594 81.792969 249.011719 81.359375 C 248.71875 80.921875 248.40625 80.5 248.082031 80.085938 C 247.761719 79.671875 247.421875 79.265625 247.074219 78.875 C 246.726562 78.480469 246.363281 78.101562 245.988281 77.730469 C 245.613281 77.363281 245.226562 77.007812 244.832031 76.664062 C 244.433594 76.320312 244.023438 75.988281 243.605469 75.671875 C 243.1875 75.351562 242.757812 75.050781 242.320312 74.761719 C 241.882812 74.46875 241.433594 74.195312 240.976562 73.933594 C 240.519531 73.671875 240.058594 73.429688 239.585938 73.199219 C 239.113281 72.96875 238.632812 72.753906 238.144531 72.550781 C 237.660156 72.351562 237.167969 72.167969 236.667969 72.003906 C 236.171875 71.835938 235.667969 71.683594 235.160156 71.550781 C 234.652344 71.414062 234.140625 71.296875 233.625 71.195312 C 233.109375 71.09375 232.589844 71.007812 232.070312 70.941406 C 231.546875 70.871094 231.023438 70.820312 230.5 70.785156 C 229.976562 70.753906 229.453125 70.734375 228.925781 70.734375 C 228.398438 70.734375 227.875 70.753906 227.351562 70.785156 C 226.824219 70.820312 226.304688 70.871094 225.78125 70.941406 C 225.261719 71.007812 224.742188 71.09375 224.226562 71.195312 C 223.710938 71.296875 223.199219 71.414062 222.691406 71.550781 C 222.183594 71.683594 221.679688 71.835938 221.183594 72.003906 C 220.683594 72.167969 220.191406 72.351562 219.703125 72.550781 C 219.21875 72.753906 218.738281 72.96875 218.265625 73.199219 C 217.792969 73.429688 217.332031 73.671875 216.875 73.933594 C 216.417969 74.195312 215.96875 74.46875 215.53125 74.761719 C 215.09375 75.050781 214.664062 75.351562 214.246094 75.671875 C 213.824219 75.988281 213.417969 76.320312 213.019531 76.664062 C 212.625 77.007812 212.238281 77.363281 211.863281 77.730469 C 211.488281 78.101562 211.125 78.480469 210.777344 78.875 C 210.425781 79.265625 210.089844 79.671875 209.765625 80.085938 C 209.445312 80.5 209.132812 80.921875 208.839844 81.359375 C 208.542969 81.792969 208.261719 82.234375 207.992188 82.6875 C 207.726562 83.140625 207.476562 83.601562 207.238281 84.070312 C 207 84.539062 206.777344 85.015625 206.574219 85.5 C 206.367188 85.984375 206.175781 86.472656 206 86.96875 C 205.828125 87.464844 205.667969 87.964844 205.527344 88.472656 C 205.382812 88.976562 205.257812 89.488281 205.148438 90 C 205.039062 90.515625 204.949219 91.03125 204.875 91.554688 C 204.796875 92.074219 204.738281 92.59375 204.699219 93.121094 C 204.65625 93.644531 204.632812 94.167969 204.625 94.695312 C 204.617188 95.21875 204.625 95.746094 204.652344 96.269531 C 204.679688 96.792969 204.722656 97.316406 204.785156 97.839844 C 204.84375 98.363281 204.921875 98.882812 205.015625 99.398438 C 205.109375 99.914062 205.222656 100.429688 205.347656 100.9375 C 205.476562 101.449219 205.621094 101.953125 205.78125 102.453125 C 205.941406 102.957031 206.117188 103.449219 206.308594 103.941406 C 206.503906 104.429688 206.710938 104.910156 206.933594 105.386719 C 207.160156 105.863281 207.398438 106.328125 207.652344 106.789062 Z M 228.925781 84.882812 C 229.59375 84.882812 230.253906 84.949219 230.910156 85.078125 C 231.566406 85.207031 232.203125 85.402344 232.820312 85.65625 C 233.4375 85.914062 234.023438 86.226562 234.578125 86.597656 C 235.132812 86.96875 235.648438 87.390625 236.121094 87.863281 C 236.59375 88.335938 237.011719 88.847656 237.382812 89.402344 C 237.757812 89.960938 238.070312 90.546875 238.324219 91.164062 C 238.582031 91.78125 238.773438 92.417969 238.902344 93.070312 C 239.035156 93.726562 239.097656 94.386719 239.097656 95.054688 C 239.097656 95.722656 239.035156 96.386719 238.902344 97.042969 C 238.773438 97.695312 238.582031 98.332031 238.324219 98.949219 C 238.070312 99.566406 237.757812 100.152344 237.382812 100.707031 C 237.011719 101.265625 236.59375 101.777344 236.121094 102.25 C 235.648438 102.722656 235.132812 103.144531 234.578125 103.515625 C 234.023438 103.886719 233.4375 104.199219 232.820312 104.457031 C 232.203125 104.710938 231.566406 104.902344 230.910156 105.035156 C 230.253906 105.164062 229.59375 105.230469 228.925781 105.230469 C 228.257812 105.230469 227.597656 105.164062 226.941406 105.035156 C 226.285156 104.902344 225.648438 104.710938 225.03125 104.457031 C 224.414062 104.199219 223.828125 103.886719 223.273438 103.515625 C 222.71875 103.144531 222.203125 102.722656 221.730469 102.25 C 221.257812 101.777344 220.835938 101.265625 220.464844 100.707031 C 220.09375 100.152344 219.78125 99.566406 219.527344 98.949219 C 219.269531 98.332031 219.078125 97.695312 218.949219 97.042969 C 218.816406 96.386719 218.753906 95.722656 218.753906 95.054688 C 218.753906 94.386719 218.816406 93.726562 218.949219 93.070312 C 219.078125 92.417969 219.269531 91.78125 219.527344 91.164062 C 219.78125 90.546875 220.09375 89.960938 220.464844 89.402344 C 220.835938 88.847656 221.257812 88.335938 221.730469 87.863281 C 222.203125 87.390625 222.71875 86.96875 223.273438 86.597656 C 223.828125 86.226562 224.414062 85.914062 225.03125 85.65625 C 225.648438 85.402344 226.285156 85.207031 226.941406 85.078125 C 227.597656 84.949219 228.257812 84.882812 228.925781 84.882812 Z M 228.925781 84.882812 " fill-opacity="1" fill-rule="nonzero"/><g clip-path="url(#8e725e4a7f)"><path fill="#f50505" d="M 106.253906 123.808594 C 113.070312 123.679688 118.695312 129.105469 118.824219 135.921875 C 118.824219 136.042969 118.824219 136.160156 118.824219 136.285156 C 118.898438 143.101562 113.4375 148.6875 106.621094 148.765625 C 99.804688 148.839844 94.21875 143.378906 94.140625 136.5625 C 94.140625 136.46875 94.140625 136.375 94.140625 136.285156 C 94.066406 129.503906 99.472656 123.929688 106.253906 123.808594 Z M 107.578125 103.523438 C 105.738281 103.457031 103.890625 103.550781 102.070312 103.796875 C 101.425781 103.882812 100.894531 104.335938 100.703125 104.953125 L 98.886719 110.867188 C 98.730469 111.371094 98.34375 111.769531 97.851562 111.945312 C 96.996094 112.253906 96.15625 112.597656 95.335938 112.988281 C 94.859375 113.21875 94.300781 113.207031 93.832031 112.957031 L 88.375 110.058594 C 87.796875 109.757812 87.097656 109.816406 86.585938 110.210938 C 84.246094 111.988281 82.164062 114.078125 80.382812 116.410156 C 79.984375 116.929688 79.925781 117.621094 80.230469 118.199219 L 83.132812 123.664062 C 83.382812 124.125 83.40625 124.683594 83.191406 125.160156 C 82.796875 125.980469 82.449219 126.820312 82.144531 127.675781 C 81.96875 128.175781 81.570312 128.558594 81.0625 128.710938 L 75.152344 130.53125 C 74.53125 130.71875 74.078125 131.253906 73.996094 131.894531 C 73.597656 134.8125 73.597656 137.757812 73.996094 140.671875 C 74.078125 141.3125 74.53125 141.847656 75.152344 142.035156 L 81.0625 143.855469 C 81.570312 144.007812 81.96875 144.390625 82.144531 144.894531 C 82.449219 145.75 82.796875 146.585938 83.191406 147.40625 C 83.40625 147.886719 83.382812 148.445312 83.132812 148.902344 L 80.230469 154.371094 C 79.925781 154.941406 79.984375 155.636719 80.382812 156.15625 C 82.164062 158.492188 84.246094 160.574219 86.585938 162.355469 C 87.097656 162.75 87.796875 162.804688 88.375 162.507812 L 93.832031 159.609375 C 94.300781 159.359375 94.859375 159.347656 95.335938 159.574219 C 96.15625 159.964844 96.996094 160.3125 97.851562 160.617188 C 98.34375 160.789062 98.730469 161.191406 98.886719 161.691406 L 100.703125 167.605469 C 100.894531 168.230469 101.425781 168.683594 102.070312 168.765625 C 104.980469 169.160156 107.933594 169.160156 110.84375 168.765625 C 111.484375 168.683594 112.019531 168.230469 112.210938 167.605469 L 114.027344 161.691406 C 114.183594 161.191406 114.566406 160.789062 115.0625 160.617188 C 115.917969 160.3125 116.761719 159.964844 117.578125 159.574219 C 118.054688 159.347656 118.609375 159.359375 119.074219 159.609375 L 124.539062 162.507812 C 125.117188 162.804688 125.8125 162.75 126.328125 162.355469 C 128.667969 160.574219 130.75 158.492188 132.53125 156.15625 C 132.925781 155.636719 132.984375 154.941406 132.683594 154.371094 L 129.785156 148.902344 C 129.527344 148.445312 129.511719 147.886719 129.726562 147.40625 C 130.117188 146.585938 130.464844 145.75 130.769531 144.894531 C 130.941406 144.390625 131.34375 144.007812 131.851562 143.855469 L 137.765625 142.035156 C 138.382812 141.84375 138.835938 141.3125 138.921875 140.671875 C 139.3125 137.757812 139.3125 134.8125 138.921875 131.894531 C 138.835938 131.253906 138.382812 130.71875 137.765625 130.53125 L 131.851562 128.710938 C 131.34375 128.558594 130.941406 128.175781 130.769531 127.675781 C 130.464844 126.820312 130.117188 125.980469 129.726562 125.160156 C 129.511719 124.683594 129.527344 124.125 129.785156 123.664062 L 132.683594 118.199219 C 132.984375 117.621094 132.925781 116.929688 132.53125 116.410156 C 130.75 114.078125 128.667969 111.988281 126.328125 110.210938 C 125.8125 109.816406 125.117188 109.757812 124.539062 110.058594 L 119.074219 112.957031 C 118.609375 113.207031 118.054688 113.21875 117.578125 112.992188 C 116.761719 112.605469 115.917969 112.253906 115.0625 111.953125 C 114.566406 111.777344 114.183594 111.375 114.027344 110.867188 L 112.210938 104.960938 C 112.019531 104.335938 111.484375 103.882812 110.84375 103.796875 C 109.761719 103.652344 108.671875 103.558594 107.578125 103.523438 " fill-opacity="1" fill-rule="nonzero"/></g><g fill="#ffffff" fill-opacity="1"><g transform="translate(183.080472, 193.58504)"><g><path d="M 30.9375 -27.03125 C 33.789062 -27.03125 35.972656 -26.023438 37.484375 -24.015625 C 38.910156 -22.035156 39.625 -19.25 39.625 -15.65625 L 39.625 -10.828125 C 39.625 -7.671875 38.925781 -5.085938 37.53125 -3.078125 C 36.101562 -1.023438 33.867188 0 30.828125 0 L 6.046875 0 C 5.785156 0 5.453125 -0.0976562 5.046875 -0.296875 C 4.648438 -0.503906 4.453125 -1.03125 4.453125 -1.875 L 4.453125 -6.265625 C 4.453125 -7.109375 4.648438 -7.628906 5.046875 -7.828125 C 5.453125 -8.035156 5.785156 -8.140625 6.046875 -8.140625 L 29.515625 -8.140625 C 29.984375 -8.140625 30.316406 -8.21875 30.515625 -8.375 C 30.722656 -8.539062 30.882812 -8.695312 31 -8.84375 C 31.320312 -9.394531 31.484375 -10.164062 31.484375 -11.15625 L 31.484375 -15.875 C 31.484375 -17.238281 31.265625 -18.082031 30.828125 -18.40625 C 30.390625 -18.738281 29.96875 -18.90625 29.5625 -18.90625 L 13.078125 -18.90625 C 11.941406 -18.90625 10.773438 -19.050781 9.578125 -19.34375 C 8.390625 -19.632812 7.378906 -20.347656 6.546875 -21.484375 C 5.109375 -23.503906 4.390625 -26.4375 4.390625 -30.28125 L 4.390625 -34.453125 C 4.390625 -37.679688 5.109375 -40.285156 6.546875 -42.265625 C 7.972656 -44.273438 10.1875 -45.28125 13.1875 -45.28125 L 36.875 -45.28125 C 37.09375 -45.28125 37.398438 -45.175781 37.796875 -44.96875 C 38.203125 -44.769531 38.40625 -44.25 38.40625 -43.40625 L 38.40625 -39.015625 C 38.40625 -38.171875 38.203125 -37.644531 37.796875 -37.4375 C 37.398438 -37.238281 37.09375 -37.140625 36.875 -37.140625 L 14.5 -37.140625 C 14.03125 -37.140625 13.691406 -37.066406 13.484375 -36.921875 C 13.285156 -36.773438 13.132812 -36.613281 13.03125 -36.4375 C 12.726562 -35.84375 12.578125 -35.070312 12.578125 -34.125 L 12.578125 -30.0625 C 12.578125 -28.707031 12.785156 -27.863281 13.203125 -27.53125 C 13.628906 -27.195312 14.046875 -27.03125 14.453125 -27.03125 Z M 30.9375 -27.03125 "/></g></g></g><g fill="#ffffff" fill-opacity="1"><g transform="translate(106.492273, 270.584967)"><g><path d="M 22.484375 -20.25 C 23.304688 -20.25 23.863281 -19.988281 24.15625 -19.46875 C 24.414062 -19.007812 24.546875 -18.210938 24.546875 -17.078125 L 24.546875 -0.828125 C 24.546875 -0.453125 24.457031 -0.210938 24.28125 -0.109375 C 24.101562 -0.015625 23.957031 0.03125 23.84375 0.03125 L 21.734375 0.03125 C 21.628906 0.03125 21.484375 -0.015625 21.296875 -0.109375 C 21.117188 -0.210938 21.03125 -0.453125 21.03125 -0.828125 L 21.03125 -15.609375 C 21.03125 -15.617188 21.03125 -15.628906 21.03125 -15.640625 C 21.03125 -15.648438 21.03125 -15.65625 21.03125 -15.65625 L 20.921875 -15.65625 C 20.878906 -15.65625 20.859375 -15.640625 20.859375 -15.609375 L 16.640625 -5.1875 C 16.472656 -4.675781 16.300781 -4.234375 16.125 -3.859375 C 16.039062 -3.679688 15.945312 -3.515625 15.84375 -3.359375 C 15.738281 -3.210938 15.632812 -3.078125 15.53125 -2.953125 C 15.289062 -2.691406 15.03125 -2.507812 14.75 -2.40625 C 14.488281 -2.3125 14.160156 -2.265625 13.765625 -2.265625 L 12.75 -2.265625 C 12.394531 -2.265625 12.066406 -2.3125 11.765625 -2.40625 C 11.617188 -2.457031 11.484375 -2.53125 11.359375 -2.625 C 11.242188 -2.726562 11.117188 -2.835938 10.984375 -2.953125 C 10.773438 -3.210938 10.578125 -3.515625 10.390625 -3.859375 C 10.234375 -4.234375 10.0625 -4.675781 9.875 -5.1875 L 5.671875 -15.578125 C 5.660156 -15.628906 5.640625 -15.65625 5.609375 -15.65625 L 5.484375 -15.65625 C 5.484375 -15.65625 5.484375 -15.648438 5.484375 -15.640625 C 5.484375 -15.628906 5.484375 -15.617188 5.484375 -15.609375 L 5.484375 -0.828125 C 5.484375 -0.453125 5.394531 -0.210938 5.21875 -0.109375 C 5.050781 -0.015625 4.910156 0.03125 4.796875 0.03125 L 2.671875 0.03125 C 2.554688 0.03125 2.410156 -0.015625 2.234375 -0.109375 C 2.054688 -0.210938 1.96875 -0.453125 1.96875 -0.828125 L 1.96875 -17.078125 C 1.96875 -18.210938 2.097656 -19.007812 2.359375 -19.46875 C 2.648438 -19.988281 3.21875 -20.25 4.0625 -20.25 L 6.3125 -20.25 C 6.675781 -20.25 6.960938 -20.21875 7.171875 -20.15625 C 7.453125 -20.070312 7.679688 -19.945312 7.859375 -19.78125 C 7.941406 -19.6875 8.03125 -19.582031 8.125 -19.46875 C 8.21875 -19.351562 8.296875 -19.222656 8.359375 -19.078125 C 8.421875 -18.921875 8.488281 -18.75 8.5625 -18.5625 C 8.632812 -18.375 8.707031 -18.164062 8.78125 -17.9375 L 13.09375 -7.078125 C 13.113281 -7.023438 13.128906 -6.992188 13.140625 -6.984375 C 13.160156 -6.984375 13.171875 -6.984375 13.171875 -6.984375 L 13.421875 -6.984375 C 13.453125 -6.984375 13.476562 -7.015625 13.5 -7.078125 L 17.84375 -17.9375 C 17.925781 -18.164062 18 -18.375 18.0625 -18.5625 C 18.125 -18.75 18.191406 -18.921875 18.265625 -19.078125 C 18.347656 -19.222656 18.425781 -19.351562 18.5 -19.46875 C 18.582031 -19.582031 18.664062 -19.6875 18.75 -19.78125 C 18.945312 -19.96875 19.171875 -20.09375 19.421875 -20.15625 C 19.628906 -20.21875 19.914062 -20.25 20.28125 -20.25 Z M 22.484375 -20.25 "/></g></g></g><g fill="#ffffff" fill-opacity="1"><g transform="translate(134.233628, 270.584967)"><g><path d="M 18.703125 -18.453125 C 19.179688 -17.867188 19.535156 -17.066406 19.765625 -16.046875 C 19.859375 -15.578125 19.929688 -15.046875 19.984375 -14.453125 C 20.046875 -13.859375 20.078125 -13.226562 20.078125 -12.5625 L 20.078125 -7.6875 C 20.078125 -7 20.046875 -6.359375 19.984375 -5.765625 C 19.929688 -5.179688 19.859375 -4.648438 19.765625 -4.171875 C 19.535156 -3.171875 19.179688 -2.363281 18.703125 -1.75 C 18.191406 -1.101562 17.550781 -0.648438 16.78125 -0.390625 C 16 -0.109375 15.078125 0.03125 14.015625 0.03125 L 8.015625 0.03125 C 6.929688 0.03125 6.015625 -0.109375 5.265625 -0.390625 C 4.492188 -0.648438 3.851562 -1.109375 3.34375 -1.765625 C 2.851562 -2.410156 2.5 -3.210938 2.28125 -4.171875 C 2.164062 -4.648438 2.082031 -5.179688 2.03125 -5.765625 C 1.988281 -6.359375 1.96875 -7 1.96875 -7.6875 L 1.96875 -12.5625 C 1.96875 -13.96875 2.070312 -15.128906 2.28125 -16.046875 C 2.5 -17.015625 2.851562 -17.816406 3.34375 -18.453125 C 3.851562 -19.078125 4.492188 -19.535156 5.265625 -19.828125 C 6.046875 -20.109375 6.960938 -20.25 8.015625 -20.25 L 14.015625 -20.25 C 15.078125 -20.25 16 -20.109375 16.78125 -19.828125 C 17.550781 -19.535156 18.191406 -19.078125 18.703125 -18.453125 Z M 16.421875 -12.984375 C 16.421875 -13.335938 16.410156 -13.664062 16.390625 -13.96875 C 16.378906 -14.269531 16.347656 -14.546875 16.296875 -14.796875 C 16.234375 -15.253906 16.09375 -15.625 15.875 -15.90625 C 15.707031 -16.132812 15.460938 -16.3125 15.140625 -16.4375 C 14.972656 -16.488281 14.785156 -16.53125 14.578125 -16.5625 C 14.378906 -16.59375 14.148438 -16.609375 13.890625 -16.609375 L 8.140625 -16.609375 C 7.867188 -16.609375 7.628906 -16.59375 7.421875 -16.5625 C 7.222656 -16.53125 7.039062 -16.488281 6.875 -16.4375 C 6.550781 -16.3125 6.304688 -16.132812 6.140625 -15.90625 C 6.046875 -15.769531 5.960938 -15.609375 5.890625 -15.421875 C 5.828125 -15.234375 5.773438 -15.023438 5.734375 -14.796875 C 5.691406 -14.546875 5.660156 -14.269531 5.640625 -13.96875 C 5.617188 -13.664062 5.609375 -13.335938 5.609375 -12.984375 L 5.609375 -7.25 C 5.609375 -6.882812 5.617188 -6.550781 5.640625 -6.25 C 5.660156 -5.945312 5.691406 -5.675781 5.734375 -5.4375 C 5.773438 -5.21875 5.828125 -5.015625 5.890625 -4.828125 C 5.960938 -4.640625 6.046875 -4.476562 6.140625 -4.34375 C 6.304688 -4.082031 6.550781 -3.90625 6.875 -3.8125 C 7.175781 -3.695312 7.597656 -3.640625 8.140625 -3.640625 L 13.890625 -3.640625 C 14.429688 -3.640625 14.847656 -3.695312 15.140625 -3.8125 C 15.460938 -3.90625 15.707031 -4.082031 15.875 -4.34375 C 16.070312 -4.59375 16.210938 -4.957031 16.296875 -5.4375 C 16.347656 -5.675781 16.378906 -5.945312 16.390625 -6.25 C 16.410156 -6.550781 16.421875 -6.882812 16.421875 -7.25 Z M 16.421875 -12.984375 "/></g></g></g><g fill="#ffffff" fill-opacity="1"><g transform="translate(157.502964, 270.584967)"><g><path d="M 18.75 -15.6875 C 19 -14.644531 19.125 -13.429688 19.125 -12.046875 L 19.125 -8.1875 C 19.125 -6.789062 19 -5.578125 18.75 -4.546875 C 18.632812 -4.035156 18.472656 -3.5625 18.265625 -3.125 C 18.066406 -2.695312 17.835938 -2.316406 17.578125 -1.984375 C 17.035156 -1.296875 16.335938 -0.789062 15.484375 -0.46875 C 14.648438 -0.132812 13.660156 0.03125 12.515625 0.03125 L 4.109375 0.03125 C 3.734375 0.03125 3.375 -0.0625 3.03125 -0.25 C 2.695312 -0.445312 2.429688 -0.707031 2.234375 -1.03125 C 2.109375 -1.257812 2.019531 -1.515625 1.96875 -1.796875 L 1.984375 -18.578125 C 2.023438 -18.679688 2.0625 -18.785156 2.09375 -18.890625 C 2.132812 -18.992188 2.179688 -19.097656 2.234375 -19.203125 C 2.628906 -19.835938 3.195312 -20.179688 3.9375 -20.234375 L 3.9375 -20.25 L 12.515625 -20.25 C 13.640625 -20.25 14.628906 -20.085938 15.484375 -19.765625 C 16.316406 -19.429688 17.015625 -18.929688 17.578125 -18.265625 C 17.835938 -17.921875 18.066406 -17.535156 18.265625 -17.109375 C 18.472656 -16.679688 18.632812 -16.207031 18.75 -15.6875 Z M 5.578125 -3.765625 C 5.578125 -3.710938 5.582031 -3.675781 5.59375 -3.65625 C 5.601562 -3.644531 5.609375 -3.640625 5.609375 -3.640625 L 12.4375 -3.640625 C 12.71875 -3.640625 12.976562 -3.65625 13.21875 -3.6875 C 13.46875 -3.71875 13.691406 -3.765625 13.890625 -3.828125 C 14.265625 -3.984375 14.566406 -4.207031 14.796875 -4.5 C 15.046875 -4.820312 15.21875 -5.25 15.3125 -5.78125 C 15.363281 -6.050781 15.40625 -6.351562 15.4375 -6.6875 C 15.46875 -7.03125 15.484375 -7.40625 15.484375 -7.8125 L 15.484375 -12.40625 C 15.484375 -12.820312 15.46875 -13.203125 15.4375 -13.546875 C 15.40625 -13.890625 15.363281 -14.195312 15.3125 -14.46875 C 15.21875 -15 15.046875 -15.421875 14.796875 -15.734375 C 14.597656 -16.023438 14.296875 -16.242188 13.890625 -16.390625 C 13.492188 -16.535156 13.007812 -16.609375 12.4375 -16.609375 L 5.625 -16.609375 C 5.59375 -16.609375 5.578125 -16.5625 5.578125 -16.46875 Z M 5.578125 -3.765625 "/></g></g></g><g fill="#ffffff" fill-opacity="1"><g transform="translate(179.813998, 270.584967)"><g><path d="M 15.140625 -17.96875 L 22.046875 -0.9375 C 22.140625 -0.707031 22.164062 -0.507812 22.125 -0.34375 C 22.101562 -0.28125 22.054688 -0.203125 21.984375 -0.109375 C 21.910156 -0.015625 21.773438 0.03125 21.578125 0.03125 L 18.953125 0.03125 C 18.609375 0.03125 18.367188 -0.148438 18.234375 -0.515625 L 12.140625 -15.734375 C 12.117188 -15.765625 12.109375 -15.78125 12.109375 -15.78125 L 12.015625 -15.78125 C 12.015625 -15.78125 12.007812 -15.773438 12 -15.765625 C 12 -15.753906 11.988281 -15.734375 11.96875 -15.703125 L 8.828125 -7.734375 L 11.875 -7.734375 C 12.21875 -7.734375 12.453125 -7.570312 12.578125 -7.25 L 13.46875 -5.0625 C 13.550781 -4.78125 13.519531 -4.539062 13.375 -4.34375 C 13.238281 -4.113281 13.023438 -4 12.734375 -4 L 7.34375 -4 L 5.953125 -0.484375 C 5.816406 -0.140625 5.585938 0.03125 5.265625 0.03125 L 2.5625 0.03125 C 2.363281 0.03125 2.226562 -0.015625 2.15625 -0.109375 C 2.082031 -0.203125 2.035156 -0.28125 2.015625 -0.34375 C 1.960938 -0.488281 1.976562 -0.6875 2.0625 -0.9375 L 8.921875 -17.96875 C 9.242188 -18.832031 9.601562 -19.429688 10 -19.765625 C 10.050781 -19.796875 10.109375 -19.832031 10.171875 -19.875 C 10.242188 -19.925781 10.3125 -19.96875 10.375 -20 C 10.863281 -20.34375 11.425781 -20.515625 12.0625 -20.515625 C 12.738281 -20.515625 13.347656 -20.3125 13.890625 -19.90625 C 14.429688 -19.5 14.800781 -18.972656 15 -18.328125 C 15.03125 -18.285156 15.054688 -18.226562 15.078125 -18.15625 C 15.097656 -18.09375 15.117188 -18.03125 15.140625 -17.96875 Z M 15.140625 -17.96875 "/></g></g></g><g fill="#ffffff" fill-opacity="1"><g transform="translate(205.171921, 270.584967)"><g><path d="M 16.140625 -3.640625 C 16.253906 -3.640625 16.398438 -3.585938 16.578125 -3.484375 C 16.753906 -3.390625 16.84375 -3.15625 16.84375 -2.78125 L 16.84375 -0.828125 C 16.84375 -0.453125 16.753906 -0.210938 16.578125 -0.109375 C 16.398438 -0.015625 16.253906 0.03125 16.140625 0.03125 L 8.03125 0.03125 C 6.957031 0.03125 6.039062 -0.109375 5.28125 -0.390625 C 4.507812 -0.648438 3.875 -1.109375 3.375 -1.765625 C 2.894531 -2.359375 2.539062 -3.160156 2.3125 -4.171875 C 2.082031 -5.171875 1.96875 -6.34375 1.96875 -7.6875 L 1.96875 -19.390625 C 1.96875 -19.785156 2.054688 -20.023438 2.234375 -20.109375 C 2.410156 -20.203125 2.554688 -20.25 2.671875 -20.25 L 4.9375 -20.25 C 5.039062 -20.25 5.179688 -20.203125 5.359375 -20.109375 C 5.535156 -20.023438 5.625 -19.785156 5.625 -19.390625 L 5.625 -7.28125 C 5.625 -6.914062 5.628906 -6.578125 5.640625 -6.265625 C 5.660156 -5.953125 5.695312 -5.675781 5.75 -5.4375 C 5.8125 -4.988281 5.953125 -4.625 6.171875 -4.34375 C 6.335938 -4.082031 6.570312 -3.90625 6.875 -3.8125 C 7.207031 -3.695312 7.632812 -3.640625 8.15625 -3.640625 Z M 16.140625 -3.640625 "/></g></g></g><g fill="#ffffff" fill-opacity="1"><g transform="translate(225.197784, 270.584967)"><g><path d="M 4.921875 -20.25 C 5.015625 -20.25 5.148438 -20.195312 5.328125 -20.09375 C 5.515625 -20 5.609375 -19.765625 5.609375 -19.390625 L 5.609375 -0.828125 C 5.609375 -0.453125 5.515625 -0.210938 5.328125 -0.109375 C 5.148438 -0.015625 5.015625 0.03125 4.921875 0.03125 L 2.65625 0.03125 C 2.550781 0.03125 2.410156 -0.015625 2.234375 -0.109375 C 2.054688 -0.210938 1.96875 -0.453125 1.96875 -0.828125 L 1.96875 -19.390625 C 1.96875 -19.765625 2.054688 -20 2.234375 -20.09375 C 2.410156 -20.195312 2.550781 -20.25 2.65625 -20.25 Z M 4.921875 -20.25 "/></g></g></g><g fill="#ffffff" fill-opacity="1"><g transform="translate(233.994419, 270.584967)"><g><path d="M 18.953125 -20.25 C 19.066406 -20.25 19.210938 -20.203125 19.390625 -20.109375 C 19.566406 -20.023438 19.65625 -19.796875 19.65625 -19.421875 L 19.65625 -17.5 C 19.65625 -17.09375 19.566406 -16.84375 19.390625 -16.75 C 19.210938 -16.65625 19.066406 -16.609375 18.953125 -16.609375 L 12.640625 -16.609375 L 12.640625 -0.828125 C 12.640625 -0.453125 12.550781 -0.21875 12.375 -0.125 C 12.195312 -0.0390625 12.050781 0 11.9375 0 L 9.6875 0 C 9.582031 0 9.441406 -0.0390625 9.265625 -0.125 C 9.085938 -0.21875 9 -0.453125 9 -0.828125 L 9 -16.609375 L 2.671875 -16.609375 C 2.554688 -16.609375 2.410156 -16.65625 2.234375 -16.75 C 2.054688 -16.84375 1.96875 -17.09375 1.96875 -17.5 L 1.96875 -19.421875 C 1.96875 -19.796875 2.054688 -20.023438 2.234375 -20.109375 C 2.410156 -20.203125 2.554688 -20.25 2.671875 -20.25 Z M 18.953125 -20.25 "/></g></g></g><g fill="#ffffff" fill-opacity="1"><g transform="translate(256.846008, 270.584967)"><g><path d="M 20.15625 -20.25 C 20.363281 -20.25 20.507812 -20.144531 20.59375 -19.9375 C 20.644531 -19.738281 20.617188 -19.550781 20.515625 -19.375 L 13.078125 -6.21875 L 13.078125 -0.828125 C 13.078125 -0.453125 12.984375 -0.21875 12.796875 -0.125 C 12.617188 -0.0390625 12.484375 0 12.390625 0 L 10.125 0 C 10.03125 0 9.890625 -0.0390625 9.703125 -0.125 C 9.523438 -0.21875 9.4375 -0.453125 9.4375 -0.828125 L 9.4375 -6.21875 L 2.0625 -19.375 C 1.96875 -19.550781 1.941406 -19.726562 1.984375 -19.90625 C 2.035156 -20.132812 2.1875 -20.25 2.4375 -20.25 L 5.234375 -20.25 C 5.347656 -20.25 5.46875 -20.21875 5.59375 -20.15625 C 5.726562 -20.101562 5.847656 -19.976562 5.953125 -19.78125 L 11.3125 -9.953125 L 16.71875 -19.8125 C 16.8125 -19.988281 16.921875 -20.101562 17.046875 -20.15625 C 17.179688 -20.21875 17.304688 -20.25 17.421875 -20.25 Z M 20.15625 -20.25 "/></g></g></g></svg>