<svg xmlns="http://www.w3.org/2000/svg" xmlns:xlink="http://www.w3.org/1999/xlink" width="500" zoomAndPan="magnify" viewBox="0 0 375 374.999991" height="500" preserveAspectRatio="xMidYMid meet" version="1.0"><defs><g/><clipPath id="f68c1daa92"><path d="M 3.617188 3.617188 L 371.382812 3.617188 L 371.382812 371.382812 L 3.617188 371.382812 Z M 3.617188 3.617188 " clip-rule="nonzero"/></clipPath><clipPath id="9a5f34740a"><path d="M 187.5 3.617188 C 85.945312 3.617188 3.617188 85.945312 3.617188 187.5 C 3.617188 289.054688 85.945312 371.382812 187.5 371.382812 C 289.054688 371.382812 371.382812 289.054688 371.382812 187.5 C 371.382812 85.945312 289.054688 3.617188 187.5 3.617188 Z M 187.5 3.617188 " clip-rule="nonzero"/></clipPath><clipPath id="08daa234f7"><path d="M 13.15625 14.410156 L 361.84375 14.410156 L 361.84375 363.101562 L 13.15625 363.101562 Z M 13.15625 14.410156 " clip-rule="nonzero"/></clipPath><clipPath id="0a2a025100"><path d="M 187.5 14.410156 C 91.210938 14.410156 13.15625 92.46875 13.15625 188.757812 C 13.15625 285.046875 91.210938 363.101562 187.5 363.101562 C 283.789062 363.101562 361.84375 285.046875 361.84375 188.757812 C 361.84375 92.46875 283.789062 14.410156 187.5 14.410156 Z M 187.5 14.410156 " clip-rule="nonzero"/></clipPath><clipPath id="75311b362c"><path d="M 24.101562 25.359375 L 350.898438 25.359375 L 350.898438 352.152344 L 24.101562 352.152344 Z M 24.101562 25.359375 " clip-rule="nonzero"/></clipPath><clipPath id="ae28a20c6e"><path d="M 187.5 25.359375 C 97.257812 25.359375 24.101562 98.515625 24.101562 188.757812 C 24.101562 279 97.257812 352.152344 187.5 352.152344 C 277.742188 352.152344 350.898438 279 350.898438 188.757812 C 350.898438 98.515625 277.742188 25.359375 187.5 25.359375 Z M 187.5 25.359375 " clip-rule="nonzero"/></clipPath><clipPath id="1fe7ca3171"><path d="M 110 128.230469 L 308.585938 128.230469 L 308.585938 254.589844 L 110 254.589844 Z M 110 128.230469 " clip-rule="nonzero"/></clipPath><clipPath id="6bcdc0ce1a"><path d="M 71.113281 158 L 157 158 L 157 165 L 71.113281 165 Z M 71.113281 158 " clip-rule="nonzero"/></clipPath><clipPath id="28e016a92d"><path d="M 55.867188 99.476562 L 131.285156 99.476562 L 131.285156 174.945312 L 55.867188 174.945312 Z M 55.867188 99.476562 " clip-rule="nonzero"/></clipPath></defs><rect x="-37.5" width="450" fill="#ffffff" y="-37.499999" height="449.999989" fill-opacity="1"/><rect x="-37.5" width="450" fill="#ffffff" y="-37.499999" height="449.999989" fill-opacity="1"/><g clip-path="url(#f68c1daa92)"><g clip-path="url(#9a5f34740a)"><path fill="#7cb0f6" d="M 3.617188 3.617188 L 371.382812 3.617188 L 371.382812 371.382812 L 3.617188 371.382812 Z M 3.617188 3.617188 " fill-opacity="1" fill-rule="nonzero"/></g></g><g clip-path="url(#08daa234f7)"><g clip-path="url(#0a2a025100)"><path fill="#5698f2" d="M 13.15625 14.410156 L 361.84375 14.410156 L 361.84375 363.101562 L 13.15625 363.101562 Z M 13.15625 14.410156 " fill-opacity="1" fill-rule="nonzero"/></g></g><g clip-path="url(#75311b362c)"><g clip-path="url(#ae28a20c6e)"><path fill="#004aad" d="M 24.101562 25.359375 L 350.898438 25.359375 L 350.898438 352.152344 L 24.101562 352.152344 Z M 24.101562 25.359375 " fill-opacity="1" fill-rule="nonzero"/></g></g><g clip-path="url(#1fe7ca3171)"><path fill="#ffffff" d="M 307.933594 191.875 L 288.832031 158.023438 L 288.773438 157.929688 C 286.945312 154.9375 283.867188 153.152344 280.53125 153.152344 L 257.105469 153.152344 L 258.746094 141.269531 C 259.199219 137.984375 258.210938 134.667969 256.03125 132.164062 C 253.851562 129.664062 250.699219 128.230469 247.382812 128.230469 L 134.140625 128.230469 C 132.394531 128.230469 130.976562 129.648438 130.976562 131.394531 C 130.976562 133.136719 132.394531 134.554688 134.140625 134.554688 L 247.386719 134.554688 C 248.894531 134.554688 250.273438 135.179688 251.261719 136.320312 C 252.253906 137.457031 252.6875 138.90625 252.480469 140.402344 L 250.71875 153.152344 L 250.621094 153.152344 L 240.222656 226.527344 L 240.210938 226.609375 C 239.984375 228.597656 239.832031 230.113281 239.730469 231.257812 L 184.078125 231.257812 C 182.550781 221.140625 173.796875 213.363281 163.257812 213.363281 C 152.722656 213.363281 143.96875 221.140625 142.4375 231.257812 L 122.203125 231.257812 C 120.695312 231.257812 119.316406 230.632812 118.328125 229.496094 C 117.335938 228.355469 116.902344 226.90625 117.109375 225.410156 L 119.261719 209.816406 C 119.503906 208.085938 118.292969 206.488281 116.5625 206.25 C 114.828125 206.011719 113.238281 207.222656 113 208.953125 L 110.84375 224.546875 C 110.390625 227.832031 111.382812 231.148438 113.558594 233.652344 C 115.738281 236.152344 118.890625 237.585938 122.207031 237.585938 L 142.441406 237.585938 C 143.96875 247.699219 152.722656 255.480469 163.261719 255.480469 C 173.796875 255.480469 182.550781 247.699219 184.082031 237.585938 L 250.234375 237.585938 C 251.761719 247.699219 260.515625 255.480469 271.054688 255.480469 C 281.589844 255.480469 290.34375 247.699219 291.875 237.585938 L 295.972656 237.585938 C 301.34375 237.585938 305.730469 232.9375 305.835938 227.183594 L 309.503906 198.054688 L 309.527344 197.660156 C 309.527344 195.597656 308.976562 193.601562 307.933594 191.875 Z M 177.992188 234.421875 C 177.992188 235.507812 177.871094 236.5625 177.648438 237.582031 C 176.195312 244.191406 170.296875 249.152344 163.257812 249.152344 C 156.21875 249.152344 150.320312 244.191406 148.871094 237.582031 C 148.644531 236.5625 148.523438 235.507812 148.523438 234.421875 C 148.523438 233.335938 148.644531 232.277344 148.871094 231.257812 C 150.320312 224.648438 156.21875 219.6875 163.257812 219.6875 C 170.296875 219.6875 176.195312 224.652344 177.648438 231.257812 C 177.871094 232.277344 177.992188 233.335938 177.992188 234.421875 Z M 285.785156 234.421875 C 285.785156 235.507812 285.664062 236.5625 285.441406 237.582031 C 283.992188 244.191406 278.09375 249.152344 271.050781 249.152344 C 264.011719 249.152344 258.113281 244.191406 256.664062 237.582031 C 256.441406 236.5625 256.316406 235.507812 256.316406 234.421875 C 256.316406 233.335938 256.441406 232.277344 256.664062 231.257812 C 258.113281 224.648438 264.011719 219.6875 271.050781 219.6875 C 278.09375 219.6875 283.988281 224.652344 285.441406 231.257812 C 285.664062 232.277344 285.785156 233.335938 285.785156 234.421875 Z M 299.535156 226.574219 L 299.511719 226.96875 C 299.511719 229.335938 297.921875 231.257812 295.972656 231.257812 L 291.875 231.257812 C 290.34375 221.140625 281.589844 213.363281 271.050781 213.363281 C 260.515625 213.363281 251.761719 221.140625 250.230469 231.257812 L 246.316406 231.257812 L 256.230469 159.476562 L 280.535156 159.476562 C 281.632812 159.476562 282.683594 160.113281 283.351562 161.1875 L 302.449219 195.027344 L 302.507812 195.121094 C 302.933594 195.816406 303.167969 196.628906 303.199219 197.484375 Z M 299.535156 226.574219 " fill-opacity="1" fill-rule="nonzero"/></g><path fill="#ffffff" d="M 280.242188 166.167969 C 279.433594 164.578125 277.820312 163.589844 276.035156 163.589844 L 263.265625 163.589844 C 260.902344 163.589844 258.890625 165.355469 258.585938 167.699219 L 255.828125 188.996094 C 255.652344 190.339844 256.066406 191.695312 256.960938 192.714844 C 257.855469 193.734375 259.148438 194.320312 260.503906 194.320312 L 286.863281 194.320312 C 288.519531 194.320312 290.023438 193.476562 290.886719 192.066406 C 291.75 190.65625 291.820312 188.9375 291.070312 187.464844 Z M 262.332031 187.996094 L 264.675781 169.914062 L 275.050781 169.914062 L 284.246094 187.996094 Z M 262.332031 187.996094 " fill-opacity="1" fill-rule="nonzero"/><g clip-path="url(#6bcdc0ce1a)"><path fill="#ffffff" d="M 156.011719 161.582031 C 156.011719 159.835938 154.597656 158.417969 152.851562 158.417969 L 74.292969 158.417969 C 72.546875 158.417969 71.128906 159.835938 71.128906 161.582031 C 71.128906 163.328125 72.546875 164.742188 74.292969 164.742188 L 152.847656 164.742188 C 154.59375 164.742188 156.011719 163.328125 156.011719 161.582031 Z M 156.011719 161.582031 " fill-opacity="1" fill-rule="nonzero"/></g><path fill="#ffffff" d="M 174.109375 176.59375 L 95.550781 176.59375 C 93.804688 176.59375 92.390625 178.011719 92.390625 179.757812 C 92.390625 181.503906 93.804688 182.917969 95.550781 182.917969 L 174.109375 182.917969 C 175.855469 182.917969 177.269531 181.503906 177.269531 179.757812 C 177.269531 178.011719 175.855469 176.59375 174.109375 176.59375 Z M 174.109375 176.59375 " fill-opacity="1" fill-rule="nonzero"/><path fill="#ffffff" d="M 146.402344 197.933594 C 146.402344 196.1875 144.984375 194.773438 143.238281 194.773438 L 83.902344 194.773438 C 82.15625 194.773438 80.742188 196.1875 80.742188 197.933594 C 80.742188 199.679688 82.15625 201.097656 83.902344 201.097656 L 143.238281 201.097656 C 144.984375 201.097656 146.402344 199.679688 146.402344 197.933594 Z M 146.402344 197.933594 " fill-opacity="1" fill-rule="nonzero"/><path fill="#ffffff" d="M 96.226562 147.929688 L 174.785156 147.929688 C 176.53125 147.929688 177.949219 146.515625 177.949219 144.769531 C 177.949219 143.023438 176.53125 141.605469 174.785156 141.605469 L 96.226562 141.605469 C 94.484375 141.605469 93.066406 143.023438 93.066406 144.769531 C 93.066406 146.515625 94.484375 147.929688 96.226562 147.929688 Z M 96.226562 147.929688 " fill-opacity="1" fill-rule="nonzero"/><path fill="#f50505" d="M 210.046875 103.273438 L 210.125 103.390625 L 233.546875 136.683594 C 233.667969 136.84375 233.820312 136.964844 234 137.054688 C 234.183594 137.144531 234.371094 137.1875 234.574219 137.1875 C 234.773438 137.1875 234.964844 137.144531 235.144531 137.054688 C 235.328125 136.964844 235.476562 136.84375 235.601562 136.683594 L 258.941406 103.390625 L 259.019531 103.273438 C 259.3125 102.742188 259.589844 102.203125 259.847656 101.65625 C 260.105469 101.109375 260.34375 100.554688 260.566406 99.992188 C 260.785156 99.429688 260.988281 98.859375 261.175781 98.28125 C 261.359375 97.707031 261.523438 97.125 261.671875 96.539062 C 261.816406 95.953125 261.945312 95.359375 262.054688 94.765625 C 262.164062 94.167969 262.253906 93.570312 262.320312 92.972656 C 262.390625 92.371094 262.441406 91.765625 262.472656 91.164062 C 262.503906 90.558594 262.515625 89.953125 262.503906 89.347656 C 262.496094 88.746094 262.46875 88.140625 262.421875 87.539062 C 262.371094 86.933594 262.304688 86.332031 262.21875 85.734375 C 262.132812 85.136719 262.027344 84.539062 261.902344 83.949219 C 261.773438 83.355469 261.628906 82.769531 261.46875 82.1875 C 261.304688 81.605469 261.121094 81.027344 260.921875 80.457031 C 260.71875 79.886719 260.5 79.324219 260.261719 78.765625 C 260.027344 78.210938 259.769531 77.664062 259.496094 77.121094 C 259.222656 76.582031 258.933594 76.050781 258.625 75.53125 C 258.320312 75.011719 257.996094 74.5 257.65625 74 C 257.3125 73.5 256.957031 73.011719 256.585938 72.535156 C 256.214844 72.058594 255.824219 71.59375 255.421875 71.140625 C 255.019531 70.691406 254.605469 70.25 254.171875 69.828125 C 253.742188 69.402344 253.296875 68.992188 252.839844 68.597656 C 252.382812 68.199219 251.914062 67.820312 251.433594 67.453125 C 250.949219 67.089844 250.457031 66.738281 249.953125 66.40625 C 249.445312 66.070312 248.933594 65.753906 248.40625 65.457031 C 247.882812 65.15625 247.347656 64.871094 246.804688 64.609375 C 246.257812 64.34375 245.707031 64.09375 245.148438 63.863281 C 244.589844 63.636719 244.019531 63.425781 243.449219 63.230469 C 242.875 63.039062 242.296875 62.863281 241.710938 62.710938 C 241.125 62.554688 240.535156 62.417969 239.941406 62.300781 C 239.347656 62.183594 238.753906 62.085938 238.152344 62.007812 C 237.554688 61.929688 236.953125 61.871094 236.347656 61.832031 C 235.742188 61.792969 235.140625 61.773438 234.535156 61.773438 C 233.929688 61.773438 233.324219 61.792969 232.722656 61.832031 C 232.117188 61.871094 231.515625 61.929688 230.917969 62.007812 C 230.316406 62.085938 229.71875 62.183594 229.125 62.300781 C 228.53125 62.417969 227.941406 62.554688 227.359375 62.710938 C 226.773438 62.863281 226.195312 63.039062 225.621094 63.230469 C 225.046875 63.425781 224.480469 63.636719 223.921875 63.863281 C 223.363281 64.09375 222.808594 64.34375 222.265625 64.609375 C 221.722656 64.871094 221.1875 65.15625 220.664062 65.457031 C 220.136719 65.753906 219.621094 66.070312 219.117188 66.40625 C 218.613281 66.738281 218.121094 67.089844 217.636719 67.453125 C 217.15625 67.820312 216.683594 68.199219 216.226562 68.597656 C 215.769531 68.992188 215.328125 69.402344 214.894531 69.828125 C 214.464844 70.25 214.046875 70.691406 213.644531 71.140625 C 213.242188 71.59375 212.855469 72.058594 212.484375 72.535156 C 212.113281 73.011719 211.753906 73.5 211.414062 74 C 211.074219 74.5 210.75 75.011719 210.441406 75.53125 C 210.136719 76.050781 209.84375 76.582031 209.570312 77.121094 C 209.296875 77.664062 209.042969 78.210938 208.804688 78.765625 C 208.570312 79.324219 208.347656 79.886719 208.148438 80.457031 C 207.949219 81.027344 207.765625 81.605469 207.601562 82.1875 C 207.4375 82.769531 207.292969 83.355469 207.167969 83.949219 C 207.042969 84.539062 206.9375 85.136719 206.851562 85.734375 C 206.761719 86.332031 206.695312 86.933594 206.648438 87.539062 C 206.601562 88.140625 206.574219 88.746094 206.5625 89.347656 C 206.554688 89.953125 206.566406 90.558594 206.597656 91.164062 C 206.628906 91.765625 206.675781 92.371094 206.746094 92.972656 C 206.816406 93.570312 206.90625 94.167969 207.015625 94.765625 C 207.125 95.359375 207.25 95.953125 207.398438 96.539062 C 207.542969 97.125 207.710938 97.707031 207.894531 98.28125 C 208.078125 98.859375 208.28125 99.429688 208.503906 99.992188 C 208.726562 100.554688 208.964844 101.109375 209.222656 101.65625 C 209.480469 102.203125 209.753906 102.742188 210.046875 103.273438 Z M 234.535156 78.058594 C 235.304688 78.058594 236.066406 78.132812 236.820312 78.28125 C 237.574219 78.433594 238.304688 78.652344 239.015625 78.949219 C 239.726562 79.242188 240.402344 79.601562 241.039062 80.03125 C 241.679688 80.457031 242.269531 80.941406 242.816406 81.488281 C 243.359375 82.03125 243.84375 82.621094 244.269531 83.261719 C 244.699219 83.902344 245.058594 84.574219 245.351562 85.285156 C 245.648438 85.996094 245.871094 86.726562 246.019531 87.480469 C 246.167969 88.238281 246.246094 88.996094 246.246094 89.765625 C 246.246094 90.535156 246.167969 91.296875 246.019531 92.050781 C 245.871094 92.804688 245.648438 93.539062 245.351562 94.25 C 245.058594 94.957031 244.699219 95.632812 244.269531 96.273438 C 243.84375 96.910156 243.359375 97.503906 242.816406 98.046875 C 242.269531 98.589844 241.679688 99.074219 241.039062 99.503906 C 240.402344 99.929688 239.726562 100.292969 239.015625 100.585938 C 238.304688 100.878906 237.574219 101.101562 236.820312 101.25 C 236.066406 101.402344 235.304688 101.476562 234.535156 101.476562 C 233.765625 101.476562 233.003906 101.402344 232.25 101.25 C 231.496094 101.101562 230.765625 100.878906 230.054688 100.585938 C 229.34375 100.292969 228.667969 99.929688 228.027344 99.503906 C 227.390625 99.074219 226.796875 98.589844 226.253906 98.046875 C 225.710938 97.503906 225.226562 96.910156 224.796875 96.273438 C 224.371094 95.632812 224.011719 94.957031 223.714844 94.25 C 223.421875 93.539062 223.199219 92.804688 223.050781 92.050781 C 222.898438 91.296875 222.824219 90.535156 222.824219 89.765625 C 222.824219 88.996094 222.898438 88.238281 223.050781 87.480469 C 223.199219 86.726562 223.421875 85.996094 223.714844 85.285156 C 224.011719 84.574219 224.371094 83.902344 224.796875 83.261719 C 225.226562 82.621094 225.710938 82.03125 226.253906 81.488281 C 226.796875 80.941406 227.390625 80.457031 228.027344 80.03125 C 228.667969 79.601562 229.34375 79.242188 230.054688 78.949219 C 230.765625 78.652344 231.496094 78.433594 232.25 78.28125 C 233.003906 78.132812 233.765625 78.058594 234.535156 78.058594 Z M 234.535156 78.058594 " fill-opacity="1" fill-rule="nonzero"/><g clip-path="url(#28e016a92d)"><path fill="#f50505" d="M 93.339844 122.859375 C 101.1875 122.714844 107.660156 128.957031 107.808594 136.804688 C 107.808594 136.945312 107.808594 137.078125 107.808594 137.21875 C 107.894531 145.066406 101.609375 151.496094 93.761719 151.585938 C 85.917969 151.671875 79.484375 145.386719 79.398438 137.539062 C 79.398438 137.433594 79.398438 137.328125 79.398438 137.21875 C 79.3125 129.414062 85.535156 123 93.339844 122.859375 Z M 94.863281 99.511719 C 92.746094 99.4375 90.621094 99.546875 88.523438 99.828125 C 87.78125 99.925781 87.171875 100.449219 86.949219 101.160156 L 84.859375 107.96875 C 84.679688 108.542969 84.234375 109.003906 83.667969 109.207031 C 82.683594 109.5625 81.71875 109.957031 80.773438 110.40625 C 80.222656 110.671875 79.578125 110.660156 79.042969 110.371094 L 72.757812 107.035156 C 72.097656 106.6875 71.292969 106.753906 70.703125 107.210938 C 68.007812 109.253906 65.609375 111.660156 63.558594 114.34375 C 63.105469 114.941406 63.039062 115.738281 63.386719 116.402344 L 66.730469 122.695312 C 67.015625 123.222656 67.042969 123.867188 66.796875 124.414062 C 66.339844 125.359375 65.9375 126.324219 65.589844 127.308594 C 65.390625 127.886719 64.925781 128.328125 64.34375 128.503906 L 57.542969 130.597656 C 56.828125 130.8125 56.304688 131.429688 56.210938 132.167969 C 55.753906 135.523438 55.753906 138.914062 56.210938 142.269531 C 56.304688 143.007812 56.828125 143.625 57.542969 143.839844 L 64.34375 145.9375 C 64.925781 146.109375 65.390625 146.550781 65.589844 147.128906 C 65.9375 148.113281 66.339844 149.078125 66.796875 150.023438 C 67.042969 150.574219 67.015625 151.214844 66.730469 151.746094 L 63.386719 158.035156 C 63.039062 158.691406 63.105469 159.496094 63.558594 160.09375 C 65.609375 162.78125 68.007812 165.179688 70.703125 167.230469 C 71.292969 167.683594 72.097656 167.746094 72.757812 167.402344 L 79.042969 164.066406 C 79.578125 163.777344 80.222656 163.765625 80.773438 164.027344 C 81.71875 164.476562 82.683594 164.875 83.667969 165.226562 C 84.234375 165.425781 84.679688 165.886719 84.859375 166.464844 L 86.949219 173.273438 C 87.171875 173.988281 87.78125 174.511719 88.523438 174.605469 C 91.875 175.0625 95.269531 175.0625 98.621094 174.605469 C 99.359375 174.511719 99.972656 173.988281 100.195312 173.273438 L 102.285156 166.464844 C 102.46875 165.886719 102.910156 165.425781 103.480469 165.226562 C 104.464844 164.875 105.433594 164.476562 106.371094 164.027344 C 106.921875 163.765625 107.558594 163.777344 108.09375 164.066406 L 114.386719 167.402344 C 115.050781 167.746094 115.851562 167.683594 116.441406 167.230469 C 119.136719 165.179688 121.535156 162.78125 123.585938 160.09375 C 124.039062 159.496094 124.109375 158.691406 123.757812 158.035156 L 120.421875 151.746094 C 120.128906 151.214844 120.109375 150.574219 120.355469 150.023438 C 120.804688 149.078125 121.207031 148.113281 121.554688 147.128906 C 121.757812 146.550781 122.21875 146.109375 122.800781 145.9375 L 129.609375 143.839844 C 130.320312 143.617188 130.839844 143.007812 130.941406 142.269531 C 131.390625 138.914062 131.390625 135.523438 130.941406 132.167969 C 130.839844 131.429688 130.320312 130.8125 129.609375 130.597656 L 122.800781 128.503906 C 122.21875 128.328125 121.757812 127.886719 121.554688 127.308594 C 121.207031 126.324219 120.804688 125.359375 120.355469 124.414062 C 120.109375 123.867188 120.128906 123.222656 120.421875 122.695312 L 123.757812 116.402344 C 124.109375 115.738281 124.039062 114.941406 123.585938 114.34375 C 121.535156 111.660156 119.136719 109.253906 116.441406 107.210938 C 115.851562 106.753906 115.050781 106.6875 114.386719 107.035156 L 108.09375 110.371094 C 107.558594 110.660156 106.921875 110.671875 106.371094 110.414062 C 105.433594 109.964844 104.464844 109.5625 103.480469 109.214844 C 102.910156 109.011719 102.46875 108.550781 102.285156 107.96875 L 100.195312 101.167969 C 99.972656 100.449219 99.359375 99.925781 98.621094 99.828125 C 97.375 99.660156 96.121094 99.550781 94.863281 99.511719 " fill-opacity="1" fill-rule="nonzero"/></g><g fill="#ffffff" fill-opacity="1"><g transform="translate(181.766829, 203.173117)"><g><path d="M 35.609375 -31.125 C 38.898438 -31.125 41.410156 -29.960938 43.140625 -27.640625 C 44.785156 -25.359375 45.609375 -22.15625 45.609375 -18.03125 L 45.609375 -12.453125 C 45.609375 -8.828125 44.804688 -5.859375 43.203125 -3.546875 C 41.554688 -1.179688 38.984375 0 35.484375 0 L 6.953125 0 C 6.660156 0 6.28125 -0.113281 5.8125 -0.34375 C 5.351562 -0.582031 5.125 -1.1875 5.125 -2.15625 L 5.125 -7.203125 C 5.125 -8.179688 5.351562 -8.785156 5.8125 -9.015625 C 6.28125 -9.242188 6.660156 -9.359375 6.953125 -9.359375 L 33.96875 -9.359375 C 34.507812 -9.359375 34.894531 -9.453125 35.125 -9.640625 C 35.363281 -9.835938 35.546875 -10.019531 35.671875 -10.1875 C 36.054688 -10.8125 36.25 -11.695312 36.25 -12.84375 L 36.25 -18.28125 C 36.25 -19.84375 35.992188 -20.8125 35.484375 -21.1875 C 34.972656 -21.570312 34.488281 -21.765625 34.03125 -21.765625 L 15.046875 -21.765625 C 13.742188 -21.765625 12.40625 -21.929688 11.03125 -22.265625 C 9.664062 -22.597656 8.5 -23.421875 7.53125 -24.734375 C 5.882812 -27.046875 5.0625 -30.414062 5.0625 -34.84375 L 5.0625 -39.65625 C 5.0625 -43.363281 5.882812 -46.359375 7.53125 -48.640625 C 9.175781 -50.960938 11.726562 -52.125 15.1875 -52.125 L 42.4375 -52.125 C 42.6875 -52.125 43.046875 -52.003906 43.515625 -51.765625 C 43.984375 -51.535156 44.21875 -50.9375 44.21875 -49.96875 L 44.21875 -44.90625 C 44.21875 -43.9375 43.984375 -43.332031 43.515625 -43.09375 C 43.046875 -42.863281 42.6875 -42.75 42.4375 -42.75 L 16.703125 -42.75 C 16.148438 -42.75 15.757812 -42.664062 15.53125 -42.5 C 15.300781 -42.332031 15.117188 -42.144531 14.984375 -41.9375 C 14.648438 -41.257812 14.484375 -40.375 14.484375 -39.28125 L 14.484375 -34.59375 C 14.484375 -33.03125 14.722656 -32.0625 15.203125 -31.6875 C 15.691406 -31.3125 16.171875 -31.125 16.640625 -31.125 Z M 35.609375 -31.125 "/></g></g></g><g fill="#ffffff" fill-opacity="1"><g transform="translate(93.613941, 291.799861)"><g><path d="M 25.875 -23.296875 C 26.820312 -23.296875 27.460938 -23 27.796875 -22.40625 C 28.097656 -21.875 28.25 -20.957031 28.25 -19.65625 L 28.25 -0.96875 C 28.25 -0.53125 28.144531 -0.253906 27.9375 -0.140625 C 27.726562 -0.0234375 27.5625 0.03125 27.4375 0.03125 L 25 0.03125 C 24.882812 0.03125 24.722656 -0.0234375 24.515625 -0.140625 C 24.304688 -0.253906 24.203125 -0.53125 24.203125 -0.96875 L 24.203125 -17.953125 C 24.203125 -17.972656 24.203125 -17.988281 24.203125 -18 C 24.203125 -18.007812 24.203125 -18.015625 24.203125 -18.015625 L 24.0625 -18.015625 C 24.03125 -18.015625 24.015625 -17.992188 24.015625 -17.953125 L 19.140625 -5.96875 C 18.953125 -5.382812 18.753906 -4.875 18.546875 -4.4375 C 18.453125 -4.226562 18.34375 -4.039062 18.21875 -3.875 C 18.101562 -3.707031 17.988281 -3.546875 17.875 -3.390625 C 17.59375 -3.085938 17.289062 -2.878906 16.96875 -2.765625 C 16.664062 -2.660156 16.289062 -2.609375 15.84375 -2.609375 L 14.671875 -2.609375 C 14.265625 -2.609375 13.890625 -2.660156 13.546875 -2.765625 C 13.378906 -2.828125 13.222656 -2.914062 13.078125 -3.03125 C 12.941406 -3.144531 12.796875 -3.265625 12.640625 -3.390625 C 12.398438 -3.691406 12.175781 -4.039062 11.96875 -4.4375 C 11.78125 -4.875 11.582031 -5.382812 11.375 -5.96875 L 6.53125 -17.9375 C 6.507812 -17.988281 6.484375 -18.015625 6.453125 -18.015625 L 6.3125 -18.015625 C 6.3125 -18.015625 6.3125 -18.007812 6.3125 -18 C 6.3125 -17.988281 6.3125 -17.972656 6.3125 -17.953125 L 6.3125 -0.96875 C 6.3125 -0.53125 6.210938 -0.253906 6.015625 -0.140625 C 5.816406 -0.0234375 5.648438 0.03125 5.515625 0.03125 L 3.078125 0.03125 C 2.953125 0.03125 2.785156 -0.0234375 2.578125 -0.140625 C 2.367188 -0.253906 2.265625 -0.53125 2.265625 -0.96875 L 2.265625 -19.65625 C 2.265625 -20.957031 2.414062 -21.875 2.71875 -22.40625 C 3.050781 -23 3.703125 -23.296875 4.671875 -23.296875 L 7.265625 -23.296875 C 7.679688 -23.296875 8.015625 -23.257812 8.265625 -23.1875 C 8.578125 -23.09375 8.835938 -22.953125 9.046875 -22.765625 C 9.140625 -22.648438 9.238281 -22.523438 9.34375 -22.390625 C 9.445312 -22.265625 9.535156 -22.117188 9.609375 -21.953125 C 9.691406 -21.773438 9.773438 -21.578125 9.859375 -21.359375 C 9.941406 -21.148438 10.019531 -20.910156 10.09375 -20.640625 L 15.078125 -8.140625 C 15.097656 -8.085938 15.113281 -8.054688 15.125 -8.046875 C 15.144531 -8.035156 15.15625 -8.03125 15.15625 -8.03125 L 15.4375 -8.03125 C 15.476562 -8.03125 15.507812 -8.066406 15.53125 -8.140625 L 20.53125 -20.640625 C 20.625 -20.910156 20.707031 -21.148438 20.78125 -21.359375 C 20.863281 -21.578125 20.941406 -21.773438 21.015625 -21.953125 C 21.109375 -22.117188 21.203125 -22.265625 21.296875 -22.390625 C 21.390625 -22.523438 21.484375 -22.648438 21.578125 -22.765625 C 21.804688 -22.972656 22.0625 -23.113281 22.34375 -23.1875 C 22.582031 -23.257812 22.910156 -23.296875 23.328125 -23.296875 Z M 25.875 -23.296875 "/></g></g></g><g fill="#ffffff" fill-opacity="1"><g transform="translate(125.544202, 291.799861)"><g><path d="M 21.515625 -21.234375 C 22.066406 -20.554688 22.472656 -19.632812 22.734375 -18.46875 C 22.847656 -17.914062 22.9375 -17.300781 23 -16.625 C 23.070312 -15.945312 23.109375 -15.222656 23.109375 -14.453125 L 23.109375 -8.859375 C 23.109375 -8.066406 23.070312 -7.328125 23 -6.640625 C 22.9375 -5.960938 22.847656 -5.351562 22.734375 -4.8125 C 22.472656 -3.65625 22.066406 -2.722656 21.515625 -2.015625 C 20.929688 -1.273438 20.195312 -0.753906 19.3125 -0.453125 C 18.40625 -0.128906 17.34375 0.03125 16.125 0.03125 L 9.21875 0.03125 C 7.976562 0.03125 6.921875 -0.128906 6.046875 -0.453125 C 5.160156 -0.753906 4.425781 -1.28125 3.84375 -2.03125 C 3.28125 -2.769531 2.875 -3.695312 2.625 -4.8125 C 2.5 -5.351562 2.40625 -5.960938 2.34375 -6.640625 C 2.289062 -7.328125 2.265625 -8.066406 2.265625 -8.859375 L 2.265625 -14.453125 C 2.265625 -16.078125 2.382812 -17.414062 2.625 -18.46875 C 2.875 -19.582031 3.28125 -20.503906 3.84375 -21.234375 C 4.425781 -21.953125 5.160156 -22.484375 6.046875 -22.828125 C 6.953125 -23.140625 8.007812 -23.296875 9.21875 -23.296875 L 16.125 -23.296875 C 17.34375 -23.296875 18.40625 -23.140625 19.3125 -22.828125 C 20.195312 -22.484375 20.929688 -21.953125 21.515625 -21.234375 Z M 18.890625 -14.9375 C 18.890625 -15.34375 18.878906 -15.71875 18.859375 -16.0625 C 18.835938 -16.414062 18.800781 -16.738281 18.75 -17.03125 C 18.675781 -17.550781 18.515625 -17.972656 18.265625 -18.296875 C 18.078125 -18.554688 17.796875 -18.765625 17.421875 -18.921875 C 17.234375 -18.972656 17.019531 -19.019531 16.78125 -19.0625 C 16.550781 -19.101562 16.285156 -19.125 15.984375 -19.125 L 9.359375 -19.125 C 9.054688 -19.125 8.785156 -19.101562 8.546875 -19.0625 C 8.316406 -19.019531 8.109375 -18.972656 7.921875 -18.921875 C 7.546875 -18.765625 7.257812 -18.554688 7.0625 -18.296875 C 6.957031 -18.148438 6.863281 -17.96875 6.78125 -17.75 C 6.707031 -17.53125 6.644531 -17.289062 6.59375 -17.03125 C 6.550781 -16.738281 6.515625 -16.414062 6.484375 -16.0625 C 6.460938 -15.71875 6.453125 -15.34375 6.453125 -14.9375 L 6.453125 -8.34375 C 6.453125 -7.925781 6.460938 -7.539062 6.484375 -7.1875 C 6.515625 -6.84375 6.550781 -6.53125 6.59375 -6.25 C 6.644531 -6 6.707031 -5.765625 6.78125 -5.546875 C 6.863281 -5.335938 6.957031 -5.15625 7.0625 -5 C 7.257812 -4.695312 7.546875 -4.492188 7.921875 -4.390625 C 8.253906 -4.253906 8.734375 -4.1875 9.359375 -4.1875 L 15.984375 -4.1875 C 16.597656 -4.1875 17.078125 -4.253906 17.421875 -4.390625 C 17.796875 -4.492188 18.078125 -4.695312 18.265625 -5 C 18.492188 -5.289062 18.65625 -5.707031 18.75 -6.25 C 18.800781 -6.53125 18.835938 -6.84375 18.859375 -7.1875 C 18.878906 -7.539062 18.890625 -7.925781 18.890625 -8.34375 Z M 18.890625 -14.9375 "/></g></g></g><g fill="#ffffff" fill-opacity="1"><g transform="translate(152.327154, 291.799861)"><g><path d="M 21.578125 -18.046875 C 21.859375 -16.859375 22 -15.460938 22 -13.859375 L 22 -9.421875 C 22 -7.816406 21.859375 -6.421875 21.578125 -5.234375 C 21.441406 -4.648438 21.253906 -4.109375 21.015625 -3.609375 C 20.785156 -3.109375 20.519531 -2.671875 20.21875 -2.296875 C 19.59375 -1.503906 18.789062 -0.914062 17.8125 -0.53125 C 16.851562 -0.15625 15.710938 0.03125 14.390625 0.03125 L 4.71875 0.03125 C 4.289062 0.03125 3.878906 -0.078125 3.484375 -0.296875 C 3.097656 -0.515625 2.796875 -0.8125 2.578125 -1.1875 C 2.421875 -1.445312 2.316406 -1.738281 2.265625 -2.0625 L 2.296875 -21.375 C 2.328125 -21.488281 2.363281 -21.609375 2.40625 -21.734375 C 2.457031 -21.859375 2.515625 -21.976562 2.578125 -22.09375 C 3.023438 -22.820312 3.675781 -23.21875 4.53125 -23.28125 L 4.53125 -23.296875 L 14.390625 -23.296875 C 15.691406 -23.296875 16.832031 -23.109375 17.8125 -22.734375 C 18.78125 -22.359375 19.582031 -21.785156 20.21875 -21.015625 C 20.519531 -20.617188 20.785156 -20.175781 21.015625 -19.6875 C 21.253906 -19.195312 21.441406 -18.648438 21.578125 -18.046875 Z M 6.421875 -4.328125 C 6.421875 -4.265625 6.425781 -4.222656 6.4375 -4.203125 C 6.445312 -4.191406 6.453125 -4.1875 6.453125 -4.1875 L 14.3125 -4.1875 C 14.632812 -4.1875 14.9375 -4.203125 15.21875 -4.234375 C 15.5 -4.273438 15.753906 -4.332031 15.984375 -4.40625 C 16.410156 -4.582031 16.757812 -4.835938 17.03125 -5.171875 C 17.3125 -5.546875 17.507812 -6.035156 17.625 -6.640625 C 17.675781 -6.960938 17.71875 -7.316406 17.75 -7.703125 C 17.789062 -8.085938 17.8125 -8.519531 17.8125 -9 L 17.8125 -14.28125 C 17.8125 -14.75 17.789062 -15.179688 17.75 -15.578125 C 17.71875 -15.972656 17.675781 -16.332031 17.625 -16.65625 C 17.507812 -17.257812 17.3125 -17.738281 17.03125 -18.09375 C 16.800781 -18.4375 16.453125 -18.691406 15.984375 -18.859375 C 15.523438 -19.035156 14.96875 -19.125 14.3125 -19.125 L 6.46875 -19.125 C 6.4375 -19.125 6.421875 -19.066406 6.421875 -18.953125 Z M 6.421875 -4.328125 "/></g></g></g><g fill="#ffffff" fill-opacity="1"><g transform="translate(178.007123, 291.799861)"><g><path d="M 17.421875 -20.671875 L 25.375 -1.078125 C 25.476562 -0.804688 25.503906 -0.578125 25.453125 -0.390625 C 25.429688 -0.316406 25.378906 -0.226562 25.296875 -0.125 C 25.210938 -0.0195312 25.054688 0.03125 24.828125 0.03125 L 21.8125 0.03125 C 21.40625 0.03125 21.128906 -0.175781 20.984375 -0.59375 L 13.96875 -18.09375 C 13.945312 -18.132812 13.9375 -18.15625 13.9375 -18.15625 L 13.828125 -18.15625 C 13.828125 -18.15625 13.820312 -18.148438 13.8125 -18.140625 C 13.800781 -18.128906 13.785156 -18.109375 13.765625 -18.078125 L 10.15625 -8.90625 L 13.65625 -8.90625 C 14.050781 -8.90625 14.328125 -8.71875 14.484375 -8.34375 L 15.5 -5.828125 C 15.59375 -5.503906 15.554688 -5.226562 15.390625 -5 C 15.234375 -4.738281 14.988281 -4.609375 14.65625 -4.609375 L 8.453125 -4.609375 L 6.84375 -0.5625 C 6.695312 -0.164062 6.429688 0.03125 6.046875 0.03125 L 2.9375 0.03125 C 2.71875 0.03125 2.5625 -0.0195312 2.46875 -0.125 C 2.382812 -0.226562 2.332031 -0.316406 2.3125 -0.390625 C 2.257812 -0.566406 2.28125 -0.796875 2.375 -1.078125 L 10.265625 -20.671875 C 10.640625 -21.671875 11.054688 -22.359375 11.515625 -22.734375 C 11.566406 -22.773438 11.628906 -22.820312 11.703125 -22.875 C 11.785156 -22.9375 11.863281 -22.984375 11.9375 -23.015625 C 12.5 -23.410156 13.148438 -23.609375 13.890625 -23.609375 C 14.660156 -23.609375 15.351562 -23.375 15.96875 -22.90625 C 16.59375 -22.4375 17.019531 -21.832031 17.25 -21.09375 C 17.289062 -21.039062 17.320312 -20.972656 17.34375 -20.890625 C 17.375 -20.816406 17.398438 -20.742188 17.421875 -20.671875 Z M 17.421875 -20.671875 "/></g></g></g><g fill="#ffffff" fill-opacity="1"><g transform="translate(207.194044, 291.799861)"><g><path d="M 18.578125 -4.1875 C 18.710938 -4.1875 18.878906 -4.128906 19.078125 -4.015625 C 19.273438 -3.898438 19.375 -3.628906 19.375 -3.203125 L 19.375 -0.96875 C 19.375 -0.53125 19.273438 -0.253906 19.078125 -0.140625 C 18.878906 -0.0234375 18.710938 0.03125 18.578125 0.03125 L 9.25 0.03125 C 8 0.03125 6.941406 -0.128906 6.078125 -0.453125 C 5.191406 -0.753906 4.457031 -1.28125 3.875 -2.03125 C 3.320312 -2.707031 2.914062 -3.632812 2.65625 -4.8125 C 2.394531 -5.957031 2.265625 -7.304688 2.265625 -8.859375 L 2.265625 -22.3125 C 2.265625 -22.769531 2.367188 -23.046875 2.578125 -23.140625 C 2.785156 -23.242188 2.953125 -23.296875 3.078125 -23.296875 L 5.6875 -23.296875 C 5.800781 -23.296875 5.957031 -23.242188 6.15625 -23.140625 C 6.363281 -23.046875 6.46875 -22.769531 6.46875 -22.3125 L 6.46875 -8.375 C 6.46875 -7.957031 6.476562 -7.566406 6.5 -7.203125 C 6.519531 -6.847656 6.5625 -6.53125 6.625 -6.25 C 6.695312 -5.738281 6.851562 -5.320312 7.09375 -5 C 7.28125 -4.695312 7.554688 -4.492188 7.921875 -4.390625 C 8.296875 -4.253906 8.785156 -4.1875 9.390625 -4.1875 Z M 18.578125 -4.1875 "/></g></g></g><g fill="#ffffff" fill-opacity="1"><g transform="translate(230.243799, 291.799861)"><g><path d="M 5.65625 -23.296875 C 5.769531 -23.296875 5.929688 -23.238281 6.140625 -23.125 C 6.347656 -23.019531 6.453125 -22.75 6.453125 -22.3125 L 6.453125 -0.96875 C 6.453125 -0.53125 6.347656 -0.253906 6.140625 -0.140625 C 5.929688 -0.0234375 5.769531 0.03125 5.65625 0.03125 L 3.046875 0.03125 C 2.941406 0.03125 2.785156 -0.0234375 2.578125 -0.140625 C 2.367188 -0.253906 2.265625 -0.53125 2.265625 -0.96875 L 2.265625 -22.3125 C 2.265625 -22.75 2.367188 -23.019531 2.578125 -23.125 C 2.785156 -23.238281 2.941406 -23.296875 3.046875 -23.296875 Z M 5.65625 -23.296875 "/></g></g></g><g fill="#ffffff" fill-opacity="1"><g transform="translate(240.368709, 291.799861)"><g><path d="M 21.8125 -23.296875 C 21.9375 -23.296875 22.101562 -23.242188 22.3125 -23.140625 C 22.519531 -23.046875 22.625 -22.78125 22.625 -22.34375 L 22.625 -20.140625 C 22.625 -19.660156 22.519531 -19.367188 22.3125 -19.265625 C 22.101562 -19.171875 21.9375 -19.125 21.8125 -19.125 L 14.53125 -19.125 L 14.53125 -0.96875 C 14.53125 -0.53125 14.429688 -0.257812 14.234375 -0.15625 C 14.035156 -0.0507812 13.875 0 13.75 0 L 11.140625 0 C 11.023438 0 10.863281 -0.0507812 10.65625 -0.15625 C 10.445312 -0.257812 10.34375 -0.53125 10.34375 -0.96875 L 10.34375 -19.125 L 3.078125 -19.125 C 2.953125 -19.125 2.785156 -19.171875 2.578125 -19.265625 C 2.367188 -19.367188 2.265625 -19.660156 2.265625 -20.140625 L 2.265625 -22.34375 C 2.265625 -22.78125 2.367188 -23.046875 2.578125 -23.140625 C 2.785156 -23.242188 2.953125 -23.296875 3.078125 -23.296875 Z M 21.8125 -23.296875 "/></g></g></g><g fill="#ffffff" fill-opacity="1"><g transform="translate(266.670872, 291.799861)"><g><path d="M 23.1875 -23.296875 C 23.4375 -23.296875 23.609375 -23.175781 23.703125 -22.9375 C 23.753906 -22.707031 23.722656 -22.488281 23.609375 -22.28125 L 15.046875 -7.15625 L 15.046875 -0.96875 C 15.046875 -0.53125 14.941406 -0.257812 14.734375 -0.15625 C 14.523438 -0.0507812 14.363281 0 14.25 0 L 11.65625 0 C 11.539062 0 11.378906 -0.0507812 11.171875 -0.15625 C 10.960938 -0.257812 10.859375 -0.53125 10.859375 -0.96875 L 10.859375 -7.15625 L 2.375 -22.28125 C 2.257812 -22.488281 2.234375 -22.695312 2.296875 -22.90625 C 2.347656 -23.164062 2.515625 -23.296875 2.796875 -23.296875 L 6.03125 -23.296875 C 6.15625 -23.296875 6.289062 -23.265625 6.4375 -23.203125 C 6.59375 -23.140625 6.726562 -22.992188 6.84375 -22.765625 L 13.015625 -11.453125 L 19.234375 -22.796875 C 19.347656 -23.003906 19.476562 -23.140625 19.625 -23.203125 C 19.78125 -23.265625 19.921875 -23.296875 20.046875 -23.296875 Z M 23.1875 -23.296875 "/></g></g></g></svg>